<svg width="71" height="62" xmlns="http://www.w3.org/2000/svg" xmlns:xlink="http://www.w3.org/1999/xlink" xmlns:svgjs="http://svgjs.com/svgjs" viewBox="64 935 71 62"><svg width="71" height="7" xmlns="http://www.w3.org/2000/svg" xmlns:xlink="http://www.w3.org/1999/xlink" xmlns:svgjs="http://svgjs.com/svgjs" fill="#ecf9fd" x="64" y="990"><svg xmlns="http://www.w3.org/2000/svg" xmlns:xlink="http://www.w3.org/1999/xlink" width="71" height="7"><path paint-order="stroke fill markers" fill-rule="evenodd" d="M35.5 7C15.868 7 0 5.435 0 3.5 0 1.564 15.868 0 35.5 0 55.13 0 71 1.564 71 3.5 71 5.435 55.13 7 35.5 7z"/></svg></svg><svg width="50" height="47" xmlns="http://www.w3.org/2000/svg" xmlns:xlink="http://www.w3.org/1999/xlink" xmlns:svgjs="http://svgjs.com/svgjs" viewBox="75 935 50 47" x="75" y="935"><svg width="50" height="30" xmlns="http://www.w3.org/2000/svg" xmlns:xlink="http://www.w3.org/1999/xlink" xmlns:svgjs="http://svgjs.com/svgjs" viewBox="0.175 0 49.651 30" fill="#001737" x="75" y="952"><svg xmlns="http://www.w3.org/2000/svg" xmlns:xlink="http://www.w3.org/1999/xlink" width="50" height="30" viewBox="0 0.02 49.288 29.781"><path paint-order="stroke fill markers" fill-rule="evenodd" d="M7.745 14.231h3.253a4.694 4.694 0 0 0 4.694-4.694V4.714A4.694 4.694 0 0 0 10.998.02H7.745a4.694 4.694 0 0 0-4.694 4.694v4.823a4.694 4.694 0 0 0 4.694 4.694zM5.398 4.714a2.347 2.347 0 0 1 2.347-2.347h3.253a2.347 2.347 0 0 1 2.347 2.347v4.823a2.347 2.347 0 0 1-2.347 2.347H7.745a2.347 2.347 0 0 1-2.347-2.347V4.714zm11.758 15.312a1.173 1.173 0 0 1-1.642-.234 4.37 4.37 0 0 0-3.521-1.758H6.75a4.41 4.41 0 0 0-4.403 4.405v2.169a18.291 18.291 0 0 0 7.02.993c1.491.033 2.983-.06 4.459-.277a1.174 1.174 0 1 1 .394 2.314 28.479 28.479 0 0 1-4.849.31 18.975 18.975 0 0 1-8.707-1.524A1.174 1.174 0 0 1 0 25.368V22.44a6.757 6.757 0 0 1 6.75-6.75h5.234a6.692 6.692 0 0 1 5.398 2.694c.39.518.285 1.254-.232 1.643h.006zm32.132 2.413v2.93c0 .448-.256.859-.66 1.055a18.975 18.975 0 0 1-8.707 1.524 28.487 28.487 0 0 1-4.85-.31 1.174 1.174 0 0 1-.96-1.355 1.19 1.19 0 0 1 1.355-.96c1.476.218 2.967.311 4.459.278 2.38.129 4.764-.208 7.015-.993v-2.169a4.41 4.41 0 0 0-4.403-4.403h-5.234a4.37 4.37 0 0 0-3.52 1.758 1.173 1.173 0 1 1-1.878-1.408 6.691 6.691 0 0 1 5.398-2.695h5.234a6.757 6.757 0 0 1 6.75 6.748zM23.498 6.984a3.99 3.99 0 0 0-3.99 3.99v3.495a3.99 3.99 0 0 0 3.99 3.99h2.29a3.99 3.99 0 0 0 3.991-3.99v-3.495a3.99 3.99 0 0 0-3.99-3.99h-2.29zm3.934 3.99v3.495c0 .907-.736 1.642-1.643 1.642h-2.29a1.643 1.643 0 0 1-1.644-1.642v-3.495c0-.908.736-1.643 1.643-1.643h2.29c.908 0 1.644.735 1.644 1.643zm-.777 8.83h-4.023a5.468 5.468 0 0 0-5.466 5.463v2.253c0 .45.257.86.662 1.057 2.142.929 4.475 1.34 6.806 1.197a14.83 14.83 0 0 0 6.807-1.197c.404-.197.661-.607.661-1.057v-2.253a5.469 5.469 0 0 0-5.447-5.464zm3.12 6.947a13.985 13.985 0 0 1-5.131.675 13.986 13.986 0 0 1-5.131-.675v-1.484a3.121 3.121 0 0 1 3.12-3.117h4.022a3.121 3.121 0 0 1 3.12 3.117v1.484zm3.82-17.214a4.694 4.694 0 0 0 4.694 4.694h3.253a4.694 4.694 0 0 0 4.694-4.694V4.714A4.694 4.694 0 0 0 41.542.02h-3.253a4.694 4.694 0 0 0-4.694 4.694v4.823zm2.347-4.823a2.347 2.347 0 0 1 2.347-2.347h3.253a2.347 2.347 0 0 1 2.347 2.347v4.823a2.347 2.347 0 0 1-2.347 2.347h-3.253a2.347 2.347 0 0 1-2.347-2.347V4.714z"/></svg></svg><svg width="19" height="20" xmlns="http://www.w3.org/2000/svg" xmlns:xlink="http://www.w3.org/1999/xlink" xmlns:svgjs="http://svgjs.com/svgjs" viewBox="90 935 19 20" x="90" y="935"><svg width="12" height="18" xmlns="http://www.w3.org/2000/svg" xmlns:xlink="http://www.w3.org/1999/xlink" xmlns:svgjs="http://svgjs.com/svgjs" viewBox="0 0.097 12 17.806" opacity=".2" x="90" y="935"><svg xmlns="http://www.w3.org/2000/svg" xmlns:xlink="http://www.w3.org/1999/xlink" width="12" height="18" viewBox="0.584 0.946 11.233 16.669"><path paint-order="stroke fill markers" fill-rule="evenodd" d="M1.67.946c-.6 0-1.086.487-1.086 1.087v14.495c0 .6.486 1.087 1.087 1.087h.725c-.6 0-1.088-.487-1.088-1.087V2.033c0-.6.487-1.087 1.088-1.087H1.67zm9.422 0c-.6 0-1.087.487-1.087 1.087v14.495c0 .6.487 1.087 1.087 1.087h.725c-.6 0-1.087-.487-1.087-1.087V2.033c0-.6.487-1.087 1.087-1.087h-.725z"/></svg></svg><svg width="12" height="18" xmlns="http://www.w3.org/2000/svg" xmlns:xlink="http://www.w3.org/1999/xlink" xmlns:svgjs="http://svgjs.com/svgjs" viewBox="0 0.097 12 17.806" fill="#fff" opacity=".502" x="97" y="935"><svg xmlns="http://www.w3.org/2000/svg" xmlns:xlink="http://www.w3.org/1999/xlink" width="12" height="18" viewBox="0.469 0.946 11.233 16.669"><path paint-order="stroke fill markers" fill-rule="evenodd" d="M10.614.946c.6 0 1.088.487 1.088 1.087v14.495c0 .6-.487 1.087-1.088 1.087H9.89c.6 0 1.087-.487 1.087-1.087V2.033c0-.6-.487-1.087-1.087-1.087h.724zm-9.42 0c.6 0 1.087.487 1.087 1.087v14.495c0 .6-.488 1.087-1.088 1.087H.47c.6 0 1.087-.487 1.087-1.087V2.033c0-.6-.487-1.087-1.087-1.087h.724z"/></svg></svg><svg width="15" height="18" xmlns="http://www.w3.org/2000/svg" xmlns:xlink="http://www.w3.org/1999/xlink" xmlns:svgjs="http://svgjs.com/svgjs" viewBox="0.065 0 14.869 18" fill="#ecf9fd" x="92" y="937"><svg xmlns="http://www.w3.org/2000/svg" xmlns:xlink="http://www.w3.org/1999/xlink" width="15" height="18" viewBox="0.758 0.396 13.77 16.669"><path paint-order="stroke fill markers" fill-rule="evenodd" d="M.758 1.483c0-.6.486-1.087 1.087-1.087H13.44c.6 0 1.086.486 1.086 1.087v14.494c0 .6-.486 1.087-1.086 1.087H1.845c-.6 0-1.087-.487-1.087-1.087V1.483z"/></svg></svg><svg width="3" height="18" xmlns="http://www.w3.org/2000/svg" xmlns:xlink="http://www.w3.org/1999/xlink" xmlns:svgjs="http://svgjs.com/svgjs" viewBox="0.522 0 1.957 18" opacity=".2" x="92" y="937"><svg xmlns="http://www.w3.org/2000/svg" xmlns:xlink="http://www.w3.org/1999/xlink" width="3" height="18" viewBox="0.758 0.396 1.812 16.669"><path paint-order="stroke fill markers" fill-rule="evenodd" d="M1.845.396c-.6 0-1.087.486-1.087 1.087v14.494c0 .6.486 1.087 1.087 1.087h.725c-.6 0-1.087-.487-1.087-1.087V1.483c0-.6.486-1.087 1.087-1.087h-.725z"/></svg></svg><svg width="3" height="18" xmlns="http://www.w3.org/2000/svg" xmlns:xlink="http://www.w3.org/1999/xlink" xmlns:svgjs="http://svgjs.com/svgjs" viewBox="0.522 0 1.956 18" fill="#fff" opacity=".502" x="104" y="937"><svg xmlns="http://www.w3.org/2000/svg" xmlns:xlink="http://www.w3.org/1999/xlink" width="3" height="18" viewBox="0.716 0.396 1.812 16.669"><path paint-order="stroke fill markers" fill-rule="evenodd" d="M1.44.396c.6 0 1.087.486 1.087 1.087v14.494c0 .6-.486 1.087-1.087 1.087H.716c.6 0 1.087-.487 1.087-1.087V1.483c0-.6-.487-1.087-1.087-1.087h.724z"/></svg></svg><svg width="7" height="7" xmlns="http://www.w3.org/2000/svg" xmlns:xlink="http://www.w3.org/1999/xlink" xmlns:svgjs="http://svgjs.com/svgjs" fill="#017387" x="96" y="939"><svg xmlns="http://www.w3.org/2000/svg" xmlns:xlink="http://www.w3.org/1999/xlink" width="7" height="7" viewBox="0.744 0.932 5.798 5.798"><path paint-order="stroke fill markers" fill-rule="evenodd" d="M2.012 2.02C2.012 1.418 2.5.931 3.1.931h1.087c.6 0 1.087.487 1.087 1.087V2.2h.181c.6 0 1.087.487 1.087 1.087v1.088c0 .6-.486 1.087-1.087 1.087h-.18v.18c0 .601-.487 1.088-1.088 1.088H3.1c-.6 0-1.087-.487-1.087-1.087v-.181h-.181c-.6 0-1.087-.487-1.087-1.087V3.287c0-.6.486-1.087 1.087-1.087h.181v-.18z"/></svg></svg><svg width="4" height="7" xmlns="http://www.w3.org/2000/svg" xmlns:xlink="http://www.w3.org/1999/xlink" xmlns:svgjs="http://svgjs.com/svgjs" viewBox="0.359 0 3.281 7" opacity=".2" x="96" y="939"><svg xmlns="http://www.w3.org/2000/svg" xmlns:xlink="http://www.w3.org/1999/xlink" width="4" height="7" viewBox="0.744 0.932 2.718 5.798"><path paint-order="stroke fill markers" fill-rule="evenodd" d="M3.1.932c-.601 0-1.088.487-1.088 1.087V2.2h-.181c-.6 0-1.087.487-1.087 1.087v1.088c0 .6.486 1.087 1.087 1.087h.181v.18c0 .601.487 1.088 1.087 1.088h.362c-.6 0-1.087-.487-1.087-1.087v-.181h-.18c-.601 0-1.088-.487-1.088-1.087V3.287c0-.6.487-1.087 1.087-1.087h.181v-.18c0-.601.487-1.088 1.087-1.088H3.1z"/></svg></svg><svg width="4" height="7" xmlns="http://www.w3.org/2000/svg" xmlns:xlink="http://www.w3.org/1999/xlink" xmlns:svgjs="http://svgjs.com/svgjs" viewBox="0.359 0 3.281 7" fill="#fff" opacity=".502" x="99" y="939"><svg xmlns="http://www.w3.org/2000/svg" xmlns:xlink="http://www.w3.org/1999/xlink" width="4" height="7" viewBox="0.824 0.932 2.718 5.798"><path paint-order="stroke fill markers" fill-rule="evenodd" d="M1.186.932c.6 0 1.087.487 1.087 1.087V2.2h.181c.6 0 1.087.487 1.087 1.087v1.088c0 .6-.486 1.087-1.087 1.087h-.18v.18c0 .601-.487 1.088-1.088 1.088H.824c.6 0 1.087-.487 1.087-1.087v-.181h.181c.6 0 1.087-.487 1.087-1.087V3.287c0-.6-.486-1.087-1.087-1.087h-.181v-.18C1.91 1.418 1.424.931.824.931h.362z"/></svg></svg><svg width="8" height="5" xmlns="http://www.w3.org/2000/svg" xmlns:xlink="http://www.w3.org/1999/xlink" xmlns:svgjs="http://svgjs.com/svgjs" viewBox="0 0.484 8 4.031" fill="#518ef8" x="94" y="947"><svg xmlns="http://www.w3.org/2000/svg" xmlns:xlink="http://www.w3.org/1999/xlink" width="8" height="5" viewBox="0.408 0.716 6.764 3.409"><path paint-order="stroke fill markers" fill-rule="evenodd" d="M.408 1.079c0-.2.163-.363.363-.363h6.04a.363.363 0 1 1 0 .725H.77a.363.363 0 0 1-.363-.362zm0 2.684c0-.2.163-.363.363-.363h2.684a.363.363 0 1 1 0 .725H.77a.363.363 0 0 1-.363-.362z"/></svg></svg><svg width="19" height="20" xmlns="http://www.w3.org/2000/svg" xmlns:xlink="http://www.w3.org/1999/xlink" xmlns:svgjs="http://svgjs.com/svgjs" viewBox="0 0.5 19 19" fill="#017387" x="90" y="935"><svg xmlns="http://www.w3.org/2000/svg" width="19" height="20" viewBox="0.584 0.946 18.118 18.118"><path paint-order="stroke fill markers" fill-rule="evenodd" d="M.584 2.033c0-.6.486-1.087 1.087-1.087h6.522c.6 0 1.087.487 1.087 1.087v.363h.725v-.363c0-.6.487-1.087 1.087-1.087h6.522c.6 0 1.088.487 1.088 1.087v14.494c0 .601-.487 1.088-1.088 1.088h-1.087v.362c0 .6-.486 1.087-1.086 1.087H3.845c-.6 0-1.087-.487-1.087-1.087v-.725H1.67c-.6 0-1.087-.486-1.087-1.087V2.033zm7.972 0v.363H3.845c-.6 0-1.087.486-1.087 1.087v13.045H1.67a.362.362 0 0 1-.363-.363V2.033c0-.2.163-.362.363-.362h6.522c.2 0 .363.162.363.362zM3.483 17.977V16.89 3.483c0-.2.162-.363.362-.363H15.44c.2 0 .362.163.362.363V17.977c0 .2-.162.362-.362.362H3.845a.362.362 0 0 1-.362-.362zm13.044-1.087h1.087c.2 0 .363-.162.363-.362v-6.021-8.474c0-.2-.162-.362-.363-.362h-6.522c-.2 0-.362.162-.362.362v.363h4.71c.6 0 1.087.486 1.087 1.087V16.89zM9.1 4.932c-.6 0-1.087.487-1.087 1.087V6.2h-.181c-.6 0-1.087.487-1.087 1.087v1.088c0 .6.486 1.087 1.087 1.087h.181v.18c0 .601.487 1.088 1.087 1.088h1.087c.6 0 1.087-.487 1.087-1.087v-.181h.181c.6 0 1.087-.487 1.087-1.087V7.287c0-.6-.486-1.087-1.087-1.087h-.18v-.18c0-.601-.487-1.088-1.088-1.088H9.1zM8.737 6.02c0-.2.162-.362.362-.362h1.087c.2 0 .363.162.363.362v.906h.905c.2 0 .363.162.363.362v1.088c0 .2-.162.362-.363.362h-.543-.362v.906c0 .2-.163.362-.363.362H9.1a.362.362 0 0 1-.362-.362v-.544-.362h-.363-.543a.362.362 0 0 1-.362-.362V7.287c0-.2.162-.362.362-.362h.906v-.362-.544zm-4.329 7.06c0-.2.163-.363.363-.363h6.04a.363.363 0 1 1 0 .725H4.77a.363.363 0 0 1-.363-.362zm.363 2.321a.363.363 0 1 0 0 .725h2.684a.363.363 0 1 0 0-.725H4.77z"/></svg></svg></svg></svg></svg>