<svg width="71" height="59" xmlns="http://www.w3.org/2000/svg" xmlns:xlink="http://www.w3.org/1999/xlink" xmlns:svgjs="http://svgjs.com/svgjs" viewBox="73 596 71 59"><svg width="45" height="48" xmlns="http://www.w3.org/2000/svg" xmlns:xlink="http://www.w3.org/1999/xlink" xmlns:svgjs="http://svgjs.com/svgjs" viewBox="81 596 45 48" x="81" y="596"><svg width="30" height="40" xmlns="http://www.w3.org/2000/svg" xmlns:xlink="http://www.w3.org/1999/xlink" xmlns:svgjs="http://svgjs.com/svgjs" viewBox="96 596 30 40" x="96" y="596"><svg width="1" height="1" xmlns="http://www.w3.org/2000/svg" xmlns:xlink="http://www.w3.org/1999/xlink" xmlns:svgjs="http://svgjs.com/svgjs" viewBox="0 0.161 1 0.677" fill="#d3e6f0" x="117" y="634"><svg xmlns="http://www.w3.org/2000/svg" xmlns:xlink="http://www.w3.org/1999/xlink" width="1" height="1" viewBox="0.396 0.257 0.142 0.096"><path paint-order="stroke fill markers" fill-rule="evenodd" d="M.539.257C.492.29.444.322.396.353.444.322.492.29.54.257z"/></svg></svg><svg width="1" height="1" xmlns="http://www.w3.org/2000/svg" xmlns:xlink="http://www.w3.org/1999/xlink" xmlns:svgjs="http://svgjs.com/svgjs" viewBox="0 0.193 1 0.615" fill="#d3e6f0" x="117" y="634"><svg xmlns="http://www.w3.org/2000/svg" xmlns:xlink="http://www.w3.org/1999/xlink" width="1" height="1" viewBox="0.175 0.392 0.16 0.099"><path paint-order="stroke fill markers" fill-rule="evenodd" d="M.335.392z"/></svg></svg><svg width="1" height="1" xmlns="http://www.w3.org/2000/svg" xmlns:xlink="http://www.w3.org/1999/xlink" xmlns:svgjs="http://svgjs.com/svgjs" viewBox="0 0.127 1 0.746" fill="#d3e6f0" x="117" y="634"><svg xmlns="http://www.w3.org/2000/svg" xmlns:xlink="http://www.w3.org/1999/xlink" width="1" height="1" viewBox="0.614 0.109 0.124 0.092"><path paint-order="stroke fill markers" fill-rule="evenodd" d="M.738.11z"/></svg></svg><svg width="1" height="1" xmlns="http://www.w3.org/2000/svg" xmlns:xlink="http://www.w3.org/1999/xlink" xmlns:svgjs="http://svgjs.com/svgjs" viewBox="0 0.049 1 0.902" fill="#d3e6f0" x="118" y="633"><svg xmlns="http://www.w3.org/2000/svg" xmlns:xlink="http://www.w3.org/1999/xlink" width="1" height="1" viewBox="0.047 0.781 0.077 0.069"><path paint-order="stroke fill markers" fill-rule="evenodd" d="M.124.78L.047.85.124.78z"/></svg></svg><svg width="1" height="2" xmlns="http://www.w3.org/2000/svg" xmlns:xlink="http://www.w3.org/1999/xlink" xmlns:svgjs="http://svgjs.com/svgjs" viewBox="0 0.588 1 0.823" fill="#d3e6f0" x="117" y="633"><svg xmlns="http://www.w3.org/2000/svg" xmlns:xlink="http://www.w3.org/1999/xlink" width="1" height="2" viewBox="0.83 0.951 0.104 0.085"><path paint-order="stroke fill markers" fill-rule="evenodd" d="M.933.95z"/></svg></svg><svg width="2" height="1" xmlns="http://www.w3.org/2000/svg" xmlns:xlink="http://www.w3.org/1999/xlink" xmlns:svgjs="http://svgjs.com/svgjs" viewBox="0.097 0 1.806 1" fill="#d3e6f0" x="116" y="634"><svg xmlns="http://www.w3.org/2000/svg" xmlns:xlink="http://www.w3.org/1999/xlink" width="2" height="1" viewBox="0.951 0.517 0.179 0.099"><path paint-order="stroke fill markers" fill-rule="evenodd" d="M1.13.517z"/></svg></svg><svg width="30" height="40" xmlns="http://www.w3.org/2000/svg" xmlns:xlink="http://www.w3.org/1999/xlink" xmlns:svgjs="http://svgjs.com/svgjs" viewBox="0.266 0 29.467 40" fill="#d9f3fc" x="96" y="596"><svg xmlns="http://www.w3.org/2000/svg" xmlns:xlink="http://www.w3.org/1999/xlink" width="30" height="40" viewBox="0.85 0.929 28.221 38.308"><path paint-order="stroke fill markers" fill-rule="evenodd" d="M20.725 33.033a2.425 2.425 0 0 1 2.425-2.425h5.46a5.372 5.372 0 0 0 .46-2.174V3.832C29.072 2.23 27.772.93 26.169.93H3.754A2.904 2.904 0 0 0 .85 3.832v9.804A5.944 5.944 0 0 1 4.652 22.4L.988 28.746l-.138.239v.335a9.153 9.153 0 0 1 4.246-1.077l.076-.001a9.19 9.19 0 0 1 9.013 10.995h4.261a5.374 5.374 0 0 0 2.279-.508v-5.696z"/></svg></svg><svg width="1" height="1" xmlns="http://www.w3.org/2000/svg" xmlns:xlink="http://www.w3.org/1999/xlink" xmlns:svgjs="http://svgjs.com/svgjs" viewBox="0.115 0 0.77 1" fill="#d3e6f0" x="123" y="627"><svg xmlns="http://www.w3.org/2000/svg" xmlns:xlink="http://www.w3.org/1999/xlink" width="1" height="1" viewBox="0.886 0.691 0.084 0.109"><path paint-order="stroke fill markers" fill-rule="evenodd" d="M.97.69C.942.728.915.765.886.8.916.764.942.727.97.69z"/></svg></svg><svg width="1" height="2" xmlns="http://www.w3.org/2000/svg" xmlns:xlink="http://www.w3.org/1999/xlink" xmlns:svgjs="http://svgjs.com/svgjs" viewBox="0 0.043 1 1.915" fill="#d3e6f0" x="124" y="626"><svg xmlns="http://www.w3.org/2000/svg" xmlns:xlink="http://www.w3.org/1999/xlink" width="1" height="2" viewBox="0.41 0.827 0.097 0.186"><path paint-order="stroke fill markers" fill-rule="evenodd" d="M.507.827z"/></svg></svg><svg width="1" height="1" xmlns="http://www.w3.org/2000/svg" xmlns:xlink="http://www.w3.org/1999/xlink" xmlns:svgjs="http://svgjs.com/svgjs" viewBox="0.18 0 0.639 1" fill="#d3e6f0" x="124" y="627"><svg xmlns="http://www.w3.org/2000/svg" xmlns:xlink="http://www.w3.org/1999/xlink" width="1" height="1" viewBox="0.169 0.262 0.096 0.15"><path paint-order="stroke fill markers" fill-rule="evenodd" d="M.265.262z"/></svg></svg><svg width="1" height="1" xmlns="http://www.w3.org/2000/svg" xmlns:xlink="http://www.w3.org/1999/xlink" xmlns:svgjs="http://svgjs.com/svgjs" viewBox="0.21 0 0.579 1" fill="#d3e6f0" x="124" y="627"><svg xmlns="http://www.w3.org/2000/svg" xmlns:xlink="http://www.w3.org/1999/xlink" width="1" height="1" viewBox="0.295 0.046 0.097 0.168"><path paint-order="stroke fill markers" fill-rule="evenodd" d="M.392.046z"/></svg></svg><svg width="6" height="6" xmlns="http://www.w3.org/2000/svg" xmlns:xlink="http://www.w3.org/1999/xlink" xmlns:svgjs="http://svgjs.com/svgjs" viewBox="0.099 0 5.803 6" fill="#d3e6f0" x="118" y="628"><svg xmlns="http://www.w3.org/2000/svg" xmlns:xlink="http://www.w3.org/1999/xlink" width="6" height="6" viewBox="0.309 0.169 5.251 5.43"><path paint-order="stroke fill markers" fill-rule="evenodd" d="M.31 5.599L5.56.17.31 5.6z"/></svg></svg><svg width="1" height="1" xmlns="http://www.w3.org/2000/svg" xmlns:xlink="http://www.w3.org/1999/xlink" xmlns:svgjs="http://svgjs.com/svgjs" viewBox="0.148 0 0.703 1" fill="#d3e6f0" x="124" y="627"><svg xmlns="http://www.w3.org/2000/svg" xmlns:xlink="http://www.w3.org/1999/xlink" width="1" height="1" viewBox="0.033 0.477 0.092 0.131"><path paint-order="stroke fill markers" fill-rule="evenodd" d="M.125.477z"/></svg></svg><svg width="1" height="1" xmlns="http://www.w3.org/2000/svg" xmlns:xlink="http://www.w3.org/1999/xlink" xmlns:svgjs="http://svgjs.com/svgjs" viewBox="0.072 0 0.856 1" fill="#d3e6f0" x="123" y="627"><svg xmlns="http://www.w3.org/2000/svg" xmlns:xlink="http://www.w3.org/1999/xlink" width="1" height="1" viewBox="0.728 0.907 0.069 0.08"><path paint-order="stroke fill markers" fill-rule="evenodd" d="M.796.907l-.068.08.068-.08z"/></svg></svg></svg><svg width="9" height="9" xmlns="http://www.w3.org/2000/svg" xmlns:xlink="http://www.w3.org/1999/xlink" xmlns:svgjs="http://svgjs.com/svgjs" viewBox="0.13 0 8.74 9" fill="#b7c8d2" x="116" y="626"><svg xmlns="http://www.w3.org/2000/svg" xmlns:xlink="http://www.w3.org/1999/xlink" width="9" height="9" viewBox="0.725 0.608 7.886 8.121"><path paint-order="stroke fill markers" fill-rule="evenodd" d="M7.796 1.907l.09-.107c.03-.036.056-.073.084-.11l.063-.082a6.757 6.757 0 0 0 .232-.346l.03-.048a5.107 5.107 0 0 0 .22-.403c.033-.067.065-.135.095-.203H3.15A2.425 2.425 0 0 0 .725 3.033v5.696c.067-.032.134-.065.2-.1l.026-.013a5.502 5.502 0 0 0 .787-.507l.092-.073a5.099 5.099 0 0 0 .217-.186l.078-.07c.062-.058.124-.119.184-.181L7.56 2.17l.002-.002c.058-.06.113-.12.167-.182l.068-.08z"/></svg></svg><svg width="2" height="1" xmlns="http://www.w3.org/2000/svg" xmlns:xlink="http://www.w3.org/1999/xlink" xmlns:svgjs="http://svgjs.com/svgjs" viewBox="0 0.127 2 0.746" fill="#ee5793" x="89" y="633"><svg xmlns="http://www.w3.org/2000/svg" xmlns:xlink="http://www.w3.org/1999/xlink" width="2" height="1" viewBox="0.987 0.583 0.535 0.2"><path paint-order="stroke fill markers" fill-rule="evenodd" d="M1.522.583z"/></svg></svg><svg width="20" height="18" xmlns="http://www.w3.org/2000/svg" xmlns:xlink="http://www.w3.org/1999/xlink" xmlns:svgjs="http://svgjs.com/svgjs" viewBox="0 0.174 20 17.652" fill="#ee5793" x="82" y="609"><svg xmlns="http://www.w3.org/2000/svg" xmlns:xlink="http://www.w3.org/1999/xlink" width="20" height="18" viewBox="0.569 0.482 18.88 16.663"><path paint-order="stroke fill markers" fill-rule="evenodd" d="M4.692 9.802l10.296 5.945 3.664-6.348A5.945 5.945 0 0 0 8.356 3.455L1.027 16.149l3.665-6.347z"/></svg></svg><svg width="1" height="2" xmlns="http://www.w3.org/2000/svg" xmlns:xlink="http://www.w3.org/1999/xlink" xmlns:svgjs="http://svgjs.com/svgjs" viewBox="0.378 0 0.243 2" fill="#ee5793" x="82" y="626"><svg xmlns="http://www.w3.org/2000/svg" xmlns:xlink="http://www.w3.org/1999/xlink" width="1" height="2" viewBox="0.233 0.871 0.131 1.076"><path paint-order="stroke fill markers" fill-rule="evenodd" d="M.233 1.947z"/></svg></svg><svg width="7" height="7" xmlns="http://www.w3.org/2000/svg" xmlns:xlink="http://www.w3.org/1999/xlink" xmlns:svgjs="http://svgjs.com/svgjs" viewBox="0 0.422 7 6.156" fill="#ee5793" x="82" y="628"><svg xmlns="http://www.w3.org/2000/svg" xmlns:xlink="http://www.w3.org/1999/xlink" width="7" height="7" viewBox="0.231 0.248 6.616 5.818"><path paint-order="stroke fill markers" fill-rule="evenodd" d="M3.203 5.27z"/></svg></svg><svg width="2" height="2" xmlns="http://www.w3.org/2000/svg" xmlns:xlink="http://www.w3.org/1999/xlink" xmlns:svgjs="http://svgjs.com/svgjs" viewBox="0 0.805 2 0.39" fill="#ee5793" x="88" y="633"><svg xmlns="http://www.w3.org/2000/svg" xmlns:xlink="http://www.w3.org/1999/xlink" width="2" height="2" viewBox="0.914 0.863 0.8 0.156"><path paint-order="stroke fill markers" fill-rule="evenodd" d="M1.714.863z"/></svg></svg><svg width="1" height="1" xmlns="http://www.w3.org/2000/svg" xmlns:xlink="http://www.w3.org/1999/xlink" xmlns:svgjs="http://svgjs.com/svgjs" viewBox="0 0.194 1 0.612" fill="#ee5793" x="91" y="633"><svg xmlns="http://www.w3.org/2000/svg" xmlns:xlink="http://www.w3.org/1999/xlink" width="1" height="1" viewBox="0.128 0.094 0.304 0.186"><path paint-order="stroke fill markers" fill-rule="evenodd" d="M.432.094z"/></svg></svg><svg width="15" height="17" xmlns="http://www.w3.org/2000/svg" xmlns:xlink="http://www.w3.org/1999/xlink" xmlns:svgjs="http://svgjs.com/svgjs" viewBox="0 0.743 15 15.514" fill="#3796d2" x="82" y="618"><svg xmlns="http://www.w3.org/2000/svg" xmlns:xlink="http://www.w3.org/1999/xlink" width="15" height="17" viewBox="0.23 0.802 14.758 15.264"><path paint-order="stroke fill markers" fill-rule="evenodd" d="M14.565 7.478l.285-.493.138-.239L4.692.802 1.027 7.149a5.995 5.995 0 0 0-.796 3.1 5.94 5.94 0 0 0 2.972 5.02 5.917 5.917 0 0 0 3.644.758l.067-.008a5.98 5.98 0 0 0 1.868-.555 6.143 6.143 0 0 0 .65-.37c.112-.074.223-.15.33-.23.086-.065.17-.133.252-.203a9.19 9.19 0 0 1 4.551-7.182z"/></svg></svg><svg width="1" height="2" xmlns="http://www.w3.org/2000/svg" xmlns:xlink="http://www.w3.org/1999/xlink" xmlns:svgjs="http://svgjs.com/svgjs" viewBox="0 0.08 1 1.839" fill="#ffcd40" x="109" y="637"><svg xmlns="http://www.w3.org/2000/svg" xmlns:xlink="http://www.w3.org/1999/xlink" width="1" height="2" viewBox="0.145 0.616 0.212 0.391"><path paint-order="stroke fill markers" fill-rule="evenodd" d="M.357.616z"/></svg></svg><svg width="2" height="1" xmlns="http://www.w3.org/2000/svg" xmlns:xlink="http://www.w3.org/1999/xlink" xmlns:svgjs="http://svgjs.com/svgjs" viewBox="0.68 0 0.64 1" fill="#ffcd40" x="108" y="638"><svg xmlns="http://www.w3.org/2000/svg" xmlns:xlink="http://www.w3.org/1999/xlink" width="2" height="1" viewBox="0.793 0.198 0.239 0.373"><path paint-order="stroke fill markers" fill-rule="evenodd" d="M1.032.198z"/></svg></svg><svg width="1" height="2" xmlns="http://www.w3.org/2000/svg" xmlns:xlink="http://www.w3.org/1999/xlink" xmlns:svgjs="http://svgjs.com/svgjs" viewBox="0 0.524 1 0.953" fill="#ffcd40" x="107" y="639"><svg xmlns="http://www.w3.org/2000/svg" xmlns:xlink="http://www.w3.org/1999/xlink" width="1" height="2" viewBox="0.351 0.931 0.319 0.304"><path paint-order="stroke fill markers" fill-rule="evenodd" d="M.67.931z"/></svg></svg><svg width="1" height="2" xmlns="http://www.w3.org/2000/svg" xmlns:xlink="http://www.w3.org/1999/xlink" xmlns:svgjs="http://svgjs.com/svgjs" viewBox="0.12 0 0.76 2" fill="#ffcd40" x="109" y="636"><svg xmlns="http://www.w3.org/2000/svg" xmlns:xlink="http://www.w3.org/1999/xlink" width="1" height="2" viewBox="0.64 0.38 0.239 0.63"><path paint-order="stroke fill markers" fill-rule="evenodd" d="M.88.38z"/></svg></svg><svg width="2" height="1" xmlns="http://www.w3.org/2000/svg" xmlns:xlink="http://www.w3.org/1999/xlink" xmlns:svgjs="http://svgjs.com/svgjs" viewBox="0 0.049 2 0.903" fill="#ffcd40" x="104" y="641"><svg xmlns="http://www.w3.org/2000/svg" xmlns:xlink="http://www.w3.org/1999/xlink" width="2" height="1" viewBox="0.749 0.717 0.407 0.184"><path paint-order="stroke fill markers" fill-rule="evenodd" d="M1.157.717z"/></svg></svg><svg width="14" height="19" xmlns="http://www.w3.org/2000/svg" xmlns:xlink="http://www.w3.org/1999/xlink" xmlns:svgjs="http://svgjs.com/svgjs" viewBox="0.616 0 12.767 19" fill="#ffcd40" x="91" y="624"><svg xmlns="http://www.w3.org/2000/svg" xmlns:xlink="http://www.w3.org/1999/xlink" width="14" height="19" viewBox="0.981 0.243 12.351 18.38"><path paint-order="stroke fill markers" fill-rule="evenodd" d="M10.095 18.622V.242a9.143 9.143 0 0 0-4.53 1.236A9.19 9.19 0 0 0 .981 9.432a9.19 9.19 0 0 0 9.19 9.19h-.076z"/></svg></svg><svg width="1" height="2" xmlns="http://www.w3.org/2000/svg" xmlns:xlink="http://www.w3.org/1999/xlink" xmlns:svgjs="http://svgjs.com/svgjs" viewBox="0 0.803 1 0.395" fill="#ffcd40" x="104" y="641"><svg xmlns="http://www.w3.org/2000/svg" xmlns:xlink="http://www.w3.org/1999/xlink" width="1" height="2" viewBox="0.332 0.901 0.417 0.165"><path paint-order="stroke fill markers" fill-rule="evenodd" d="M.75.9z"/></svg></svg><svg width="1" height="2" xmlns="http://www.w3.org/2000/svg" xmlns:xlink="http://www.w3.org/1999/xlink" xmlns:svgjs="http://svgjs.com/svgjs" viewBox="0 0.364 1 1.272" fill="#ffcd40" x="108" y="638"><svg xmlns="http://www.w3.org/2000/svg" xmlns:xlink="http://www.w3.org/1999/xlink" width="1" height="2" viewBox="0.121 0.753 0.546 0.694"><path paint-order="stroke fill markers" fill-rule="evenodd" d="M.667.753z"/></svg></svg><svg width="2" height="2" xmlns="http://www.w3.org/2000/svg" xmlns:xlink="http://www.w3.org/1999/xlink" xmlns:svgjs="http://svgjs.com/svgjs" viewBox="0 0.393 2 1.215" fill="#ffcd40" x="105" y="640"><svg xmlns="http://www.w3.org/2000/svg" xmlns:xlink="http://www.w3.org/1999/xlink" width="2" height="2" viewBox="0.157 0.797 1.514 0.92"><path paint-order="stroke fill markers" fill-rule="evenodd" d="M1.67.797z"/></svg></svg><svg width="2" height="1" xmlns="http://www.w3.org/2000/svg" xmlns:xlink="http://www.w3.org/1999/xlink" xmlns:svgjs="http://svgjs.com/svgjs" viewBox="0.395 0 1.211 1" fill="#ffcd40" x="106" y="640"><svg xmlns="http://www.w3.org/2000/svg" xmlns:xlink="http://www.w3.org/1999/xlink" width="2" height="1" viewBox="0.846 0.382 0.34 0.281"><path paint-order="stroke fill markers" fill-rule="evenodd" d="M1.187.382z"/></svg></svg><svg width="2" height="4" xmlns="http://www.w3.org/2000/svg" xmlns:xlink="http://www.w3.org/1999/xlink" xmlns:svgjs="http://svgjs.com/svgjs" viewBox="0.672 0 0.655 4" fill="#ffcd40" x="109" y="633"><svg xmlns="http://www.w3.org/2000/svg" xmlns:xlink="http://www.w3.org/1999/xlink" width="2" height="4" viewBox="0.88 0.432 0.483 2.948"><path paint-order="stroke fill markers" fill-rule="evenodd" d="M1.362.432z"/></svg></svg><svg width="10" height="19" xmlns="http://www.w3.org/2000/svg" xmlns:xlink="http://www.w3.org/1999/xlink" xmlns:svgjs="http://svgjs.com/svgjs" viewBox="0.21 0 9.579 19" fill="#f69969" x="101" y="624"><svg xmlns="http://www.w3.org/2000/svg" xmlns:xlink="http://www.w3.org/1999/xlink" width="10" height="19" viewBox="0.095 0.242 9.267 18.381"><path paint-order="stroke fill markers" fill-rule="evenodd" d="M9.362 9.432A9.19 9.19 0 0 0 .172.242H.095v18.38l.077.001a9.177 9.177 0 0 0 3.985-.906 9.194 9.194 0 0 0 2.964-2.27 9.23 9.23 0 0 0 1.52-2.437 9.147 9.147 0 0 0 .721-3.578z"/></svg></svg><svg width="45" height="48" xmlns="http://www.w3.org/2000/svg" xmlns:xlink="http://www.w3.org/1999/xlink" xmlns:svgjs="http://svgjs.com/svgjs" viewBox="0 0.063 45 47.875" fill="#017387" x="81" y="596"><svg xmlns="http://www.w3.org/2000/svg" xmlns:xlink="http://www.w3.org/1999/xlink" width="45" height="48" viewBox="0.303 0 44.696 47.551"><path paint-order="stroke fill markers" fill-rule="evenodd" d="M43.55 32.455l.052-.063c.049-.06.096-.123.143-.185.008-.01.017-.021.024-.032A6.27 6.27 0 0 0 45 28.434V3.832A3.836 3.836 0 0 0 41.168 0H18.754a3.836 3.836 0 0 0-3.833 3.832v8.735a6.941 6.941 0 0 0-3.11.536 6.813 6.813 0 0 0-3.259 2.887l-3.665 6.347-3.665 6.347a6.868 6.868 0 0 0-.9 2.918 6.743 6.743 0 0 0 .002 1.027 6.922 6.922 0 0 0 .633 2.41l.044.096a6.84 6.84 0 0 0 2.738 2.939l.105.058.093.052.075.038c.043.023.086.045.13.066l.046.023c.054.025.107.051.161.075l.012.006a6.859 6.859 0 0 0 5.693-.03l.02-.01.02-.008a10.046 10.046 0 0 0 2.895 6.215 10.06 10.06 0 0 0 7.099 2.992H20.172c4.633 0 8.549-3.13 9.744-7.386h3.53c.903 0 1.793-.2 2.605-.568.023-.009.046-.017.068-.027a6.417 6.417 0 0 0 .619-.335l.015-.01c.082-.05.162-.102.242-.156l.025-.017c.075-.052.15-.105.223-.16l.035-.027c.068-.052.134-.105.2-.16l.047-.038c.062-.052.122-.107.182-.162.017-.015.035-.03.051-.046.072-.067.142-.135.21-.206l.008-.008 5.252-5.429c.043-.044.083-.09.125-.136l.066-.071c.045-.05.087-.103.13-.155zM10.16 16.919a5.06 5.06 0 0 1 4.364-2.507c.37 0 .745.041 1.116.128.48.112.942.294 1.372.543a5.036 5.036 0 0 1 2.508 4.35 5.01 5.01 0 0 1-.672 2.502l-3.2 5.543-8.687-5.016 3.2-5.543zm-.223 19.39l-.125.08c-.017.01-.036.02-.054.032a5.047 5.047 0 0 1-.109.064l-.067.036-.098.053a5.181 5.181 0 0 1-.08.04l-.086.042a4.417 4.417 0 0 1-.275.119l-.053.021a8.491 8.491 0 0 1-.13.049l-.027.009a5.042 5.042 0 0 1-3.329-.004L5.5 36.85a4.329 4.329 0 0 1-.312-.123l-.043-.019-.115-.052-.049-.024a4.665 4.665 0 0 1-.313-.166 5.023 5.023 0 0 1-1.837-6.852l3.2-5.543 8.542 4.932-.092.063-.107.074-.042.029-.077.055-.004.003-.106.077-.049.037-.083.064-.09.07c-.02.014-.038.03-.057.044l-.086.07-.076.061-.062.053-.09.077-.06.052-.069.062-.09.082-.048.043-.075.071-.092.089a9.607 9.607 0 0 0-.224.224l-.102.108-.08.084-.007.01c-.036.038-.071.078-.106.118l-.07.078a.583.583 0 0 0-.016.02l-.094.11c-.024.03-.05.058-.073.088l-.061.075-.04.05-.073.093-.025.031-.074.1-.067.089-.033.045-.068.097-.058.082a3.678 3.678 0 0 0-.105.155l-.048.073-.047.072-.06.095-.04.066-.052.085c-.02.031-.038.063-.056.094l-.033.058c-.02.032-.038.065-.056.098-.018.03-.035.062-.052.093l-.014.025-.015.028-.057.107-.078.152a5.22 5.22 0 0 0-.128.263l-.047.101-.005.012-.021.046-.047.107-.038.09a8.547 8.547 0 0 0-.074.18l-.03.075-.028.072-.047.125-.022.062-.027.078-.048.135-.015.048-.026.084a11.163 11.163 0 0 0-.082.266l-.054.195-.016.063c-.034.129-.065.26-.093.39l-.014.06-.037.19c-.006.033-.013.065-.018.098-.002.004-.002.009-.003.014l-.028.16-.016.102a.536.536 0 0 0-.004.028l-.02.15a.965.965 0 0 1-.006.037l-.008.061a6.07 6.07 0 0 1-.159.111l-.036.024zm1.973 1.123a7.9 7.9 0 0 1 .055-.945c.018-.157.04-.313.067-.468l.005-.027c.01-.06.022-.12.034-.179l.013-.066a8.48 8.48 0 0 1 .035-.157l.019-.085.035-.138.026-.103c.011-.042.025-.084.037-.126.01-.037.02-.075.032-.112l.037-.116.039-.12.039-.11.043-.122c.013-.036.028-.07.04-.106l.049-.124c.014-.034.028-.068.043-.1l.053-.127.044-.096.059-.128.045-.09.064-.13.047-.088.069-.13.049-.084.073-.128.051-.084c.026-.042.05-.085.077-.126l.054-.083.08-.123.057-.08.084-.122.059-.079c.029-.04.058-.08.088-.118l.061-.078.09-.115.066-.078.093-.11.069-.078a5.68 5.68 0 0 1 .096-.107l.07-.076.1-.104.073-.074.101-.1.078-.073c.034-.032.068-.065.103-.096l.081-.072.105-.093.085-.07.106-.089.089-.07.108-.084.091-.067.11-.08c.031-.023.063-.044.095-.066l.112-.077.098-.064c.038-.024.075-.049.113-.072l.102-.062.113-.068.013-.007a7.705 7.705 0 0 1 .407-.22c.11-.055.22-.11.332-.16l.004-.002a8.26 8.26 0 0 1 2.392-.667v16.4c-4.079-.5-7.257-4-7.257-8.201zm9.114 8.219V29.214l.007.001c.123.013.245.028.365.046l.021.003a7.855 7.855 0 0 1 .772.156c.107.027.213.056.319.087l.055.016a8.162 8.162 0 0 1 .67.236l.048.02a8.23 8.23 0 0 1 .963.467 7.817 7.817 0 0 1 .313.187c.014.01.029.018.043.027.09.057.179.117.266.178.017.01.033.022.05.033.085.061.17.123.253.187l.05.038c.083.064.164.13.245.197l.047.04c.08.068.16.138.238.209l.04.037c.079.074.157.149.233.225l.03.03c.079.08.156.162.232.245l.013.015a8.562 8.562 0 0 1 .446.536l.03.04c.065.085.127.172.188.26l.033.048c.06.087.118.176.175.265l.032.052c.055.09.11.18.162.273a7.08 7.08 0 0 1 .203.38c.05.1.098.2.143.302l.015.033c.047.106.093.214.136.323l.003.008c.043.108.083.218.121.329l.01.029a9.195 9.195 0 0 1 .203.694l.012.052c.026.108.05.216.071.326l.01.055a8.275 8.275 0 0 1 .104.725l.004.046a8.542 8.542 0 0 1 .026 1.167l-.006.084a6.924 6.924 0 0 1-.024.317l-.015.132c-.01.087-.02.175-.033.262-.008.062-.02.123-.03.185l-.035.2c-.689 3.528-3.628 6.26-7.257 6.634zm9.23-7.343l.001-.023c.01-.13.02-.26.025-.392l.003-.06a10.094 10.094 0 0 0-.366-3.13h1.674a.929.929 0 1 0 0-1.857h-2.4c-1.676-3.281-5.09-5.533-9.02-5.533h-.059l-.018.001h-.006c-.107 0-.213.004-.32.008-.022 0-.045.003-.068.004-.08.003-.16.008-.24.013l-.136.011-.168.016c-.057.005-.113.012-.169.018l-.135.017a9.991 9.991 0 0 0-.187.027c-.038.005-.076.01-.114.017l-.198.035-.101.018-.206.043-.093.02c-.07.015-.14.032-.208.049l-.032.007 2.743-4.753a6.864 6.864 0 0 0 .922-3.43 6.9 6.9 0 0 0-3.693-6.1l-.083-.041a7.405 7.405 0 0 0-.466-.215c-.027-.011-.053-.023-.08-.033a7.22 7.22 0 0 0-.272-.103l-.005-.002V3.832c0-1.089.886-1.975 1.975-1.975h22.414c1.089 0 1.974.886 1.974 1.975v24.601c0 .427-.06.846-.176 1.246H38.15a3.357 3.357 0 0 0-3.354 3.354v5.063c-.434.138-.89.212-1.35.212h-3.192zm6.4-1.367v-3.908c0-.826.67-1.497 1.496-1.497h3.73l-4.802 4.965-.425.44z"/></svg></svg></svg><svg width="71" height="7" xmlns="http://www.w3.org/2000/svg" xmlns:xlink="http://www.w3.org/1999/xlink" xmlns:svgjs="http://svgjs.com/svgjs" fill="#ecf9fd" x="73" y="648"><svg xmlns="http://www.w3.org/2000/svg" xmlns:xlink="http://www.w3.org/1999/xlink" width="71" height="7"><path paint-order="stroke fill markers" fill-rule="evenodd" d="M35.5 7C15.868 7 0 5.435 0 3.5 0 1.564 15.868 0 35.5 0 55.13 0 71 1.564 71 3.5 71 5.435 55.13 7 35.5 7z"/></svg></svg><svg width="18" height="19" xmlns="http://www.w3.org/2000/svg" xmlns:xlink="http://www.w3.org/1999/xlink" xmlns:svgjs="http://svgjs.com/svgjs" viewBox="0.277 0 17.445 19" fill="#017387" stroke-miterlimit="100" stroke-linecap="round" stroke="#017387" stroke-width=".5" x="103" y="603"><svg xmlns="http://www.w3.org/2000/svg" width="18" height="19" viewBox="0.651 0.046 16.949 18.459"><path paint-order="stroke fill markers" fill-rule="evenodd" d="M17.49 12.012a1.876 1.876 0 0 1-1.767 2.507H6.62a2.415 2.415 0 0 0 4.326 1.704l.943.944A3.733 3.733 0 0 1 8.815 18.5a3.752 3.752 0 0 1-3.52-4.044 1.33 1.33 0 0 1 1.332-1.211H15.7a.569.569 0 0 0 .537-.756l-3.086-8.84 1.203-.42 3.135 8.783s0 0 0 0zM8.545 1.314a3.227 3.227 0 0 0-2.969 2.162L1.854 14.138l-1.203-.42L4.298 3.272A4.813 4.813 0 0 1 8.784.046c.027 0 .054 0 .08.003l2.507.306-.44 1.164-2.23-.2a1.367 1.367 0 0 0-.155-.005z"/></svg></svg></svg>