<svg width="18" height="17" xmlns="http://www.w3.org/2000/svg" xmlns:xlink="http://www.w3.org/1999/xlink" xmlns:svgjs="http://svgjs.com/svgjs" viewBox="111 1056 18 17"><svg width="14" height="14" xmlns="http://www.w3.org/2000/svg" xmlns:xlink="http://www.w3.org/1999/xlink" xmlns:svgjs="http://svgjs.com/svgjs" viewBox="111 1056 14 14" x="111" y="1056"><svg width="14" height="14" xmlns="http://www.w3.org/2000/svg" xmlns:xlink="http://www.w3.org/1999/xlink" xmlns:svgjs="http://svgjs.com/svgjs" viewBox="111 1056 14 14" x="111" y="1056"><svg width="14" height="14" xmlns="http://www.w3.org/2000/svg" xmlns:xlink="http://www.w3.org/1999/xlink" xmlns:svgjs="http://svgjs.com/svgjs" viewBox="0.235 0 13.53 14" fill="#b8b7b7" stroke-miterlimit="100" stroke="#b8b7b7" stroke-width=".8" x="111" y="1056"><svg xmlns="http://www.w3.org/2000/svg" xmlns:xlink="http://www.w3.org/1999/xlink" width="14" height="14" viewBox="0 0.071 13.088 13.543"><path paint-order="stroke fill markers" fill-rule="evenodd" d="M11.606.07H1.481C1.085.07.713.226.434.506.154.785 0 1.156 0 1.552v2.3c0 .139.113.251.251.251H2.46v9.258c0 .14.112.252.251.252h5.596a.252.252 0 1 0 0-.503H2.962V3.852v-2.3c0-.025 0-.05-.002-.073l-.002-.024-.003-.049c-.001-.009-.003-.018-.003-.028l-.006-.043-.005-.03-.007-.04-.007-.03-.009-.04-.007-.029a1.094 1.094 0 0 0-.02-.067l-.013-.038a.54.54 0 0 0-.01-.028L2.853.995 2.842.968A.613.613 0 0 0 2.824.93L2.813.905 2.792.864l-.01-.02A1.378 1.378 0 0 0 2.71.726L2.698.71 2.67.67 2.654.65a3.937 3.937 0 0 0-.026-.033L2.61.595 2.592.574h9.014c.54 0 .978.438.978.978v2.853a.252.252 0 0 0 .504 0V1.552c0-.817-.665-1.481-1.482-1.481zM2.46 3.6H.503V1.552c0-.261.102-.507.286-.692a.979.979 0 0 1 1.67.691V3.6z"/></svg></svg></svg></svg><svg width="2" height="2" xmlns="http://www.w3.org/2000/svg" xmlns:xlink="http://www.w3.org/1999/xlink" xmlns:svgjs="http://svgjs.com/svgjs" viewBox="123 1068 2 2" x="123" y="1068"><svg width="2" height="2" xmlns="http://www.w3.org/2000/svg" xmlns:xlink="http://www.w3.org/1999/xlink" xmlns:svgjs="http://svgjs.com/svgjs" viewBox="123 1068 2 2" x="123" y="1068"><svg width="2" height="2" xmlns="http://www.w3.org/2000/svg" xmlns:xlink="http://www.w3.org/1999/xlink" xmlns:svgjs="http://svgjs.com/svgjs" viewBox="0.221 0 1.558 2" fill="#b8b7b7" stroke-miterlimit="100" stroke="#b8b7b7" stroke-width=".8" x="123" y="1068"><svg xmlns="http://www.w3.org/2000/svg" xmlns:xlink="http://www.w3.org/1999/xlink" width="2" height="2" viewBox="0.241 0.526 0.846 1.087"><path paint-order="stroke fill markers" fill-rule="evenodd" d="M.836.526a.252.252 0 0 0-.252.252v.332h-.09a.252.252 0 1 0 0 .503h.342c.139 0 .252-.113.252-.252V.778A.252.252 0 0 0 .836.526z"/></svg></svg></svg></svg><svg width="5" height="7" xmlns="http://www.w3.org/2000/svg" xmlns:xlink="http://www.w3.org/1999/xlink" xmlns:svgjs="http://svgjs.com/svgjs" viewBox="116 1057 5 7" x="116" y="1057"><svg width="5" height="7" xmlns="http://www.w3.org/2000/svg" xmlns:xlink="http://www.w3.org/1999/xlink" xmlns:svgjs="http://svgjs.com/svgjs" viewBox="116 1057 5 7" x="116" y="1057"><svg width="5" height="7" xmlns="http://www.w3.org/2000/svg" xmlns:xlink="http://www.w3.org/1999/xlink" xmlns:svgjs="http://svgjs.com/svgjs" viewBox="0.272 0 4.457 7" fill="#b8b7b7" stroke-miterlimit="100" stroke="#b8b7b7" stroke-width=".8" x="116" y="1057"><svg xmlns="http://www.w3.org/2000/svg" xmlns:xlink="http://www.w3.org/1999/xlink" width="5" height="7" viewBox="0.665 0.569 3.567 5.602"><path paint-order="stroke fill markers" fill-rule="evenodd" d="M4.18 5.765l-.424-.55-.46-.598.883-1.15a.252.252 0 1 0-.398-.306l-.803 1.043-.78-1.014A1.32 1.32 0 0 0 3.32 1.887 1.32 1.32 0 0 0 2.003.569H.917A.252.252 0 0 0 .665.82v4.27a.252.252 0 0 0 .503 0V3.205h.406L2.66 4.617l-.884 1.148a.252.252 0 0 0 .4.307l.802-1.043.491.64.312.403c.012.016.026.03.04.043a.252.252 0 0 0 .358-.35zM1.705 2.701s0 0 0 0h-.538V1.072h.834a.816.816 0 0 1 .001 1.63h-.297z"/></svg></svg></svg></svg><svg width="7" height="1" xmlns="http://www.w3.org/2000/svg" xmlns:xlink="http://www.w3.org/1999/xlink" xmlns:svgjs="http://svgjs.com/svgjs" viewBox="115 1064 7 1" x="115" y="1064"><svg width="7" height="1" xmlns="http://www.w3.org/2000/svg" xmlns:xlink="http://www.w3.org/1999/xlink" xmlns:svgjs="http://svgjs.com/svgjs" viewBox="115 1064 7 1" x="115" y="1064"><svg width="7" height="1" xmlns="http://www.w3.org/2000/svg" xmlns:xlink="http://www.w3.org/1999/xlink" xmlns:svgjs="http://svgjs.com/svgjs" viewBox="0 0.229 7 0.541" fill="#b8b7b7" stroke-miterlimit="100" stroke="#b8b7b7" stroke-width=".8" x="115" y="1064"><svg xmlns="http://www.w3.org/2000/svg" xmlns:xlink="http://www.w3.org/1999/xlink" width="7" height="1" viewBox="0.108 0.486 6.511 0.503"><path paint-order="stroke fill markers" fill-rule="evenodd" d="M6.367.486H.359a.251.251 0 1 0 0 .504h6.008a.252.252 0 1 0 0-.504z"/></svg></svg></svg></svg><svg width="6" height="1" xmlns="http://www.w3.org/2000/svg" xmlns:xlink="http://www.w3.org/1999/xlink" xmlns:svgjs="http://svgjs.com/svgjs" viewBox="115 1066 6 1" x="115" y="1066"><svg width="6" height="1" xmlns="http://www.w3.org/2000/svg" xmlns:xlink="http://www.w3.org/1999/xlink" xmlns:svgjs="http://svgjs.com/svgjs" viewBox="115 1066 6 1" x="115" y="1066"><svg width="6" height="1" xmlns="http://www.w3.org/2000/svg" xmlns:xlink="http://www.w3.org/1999/xlink" xmlns:svgjs="http://svgjs.com/svgjs" viewBox="0 0.234 6 0.532" fill="#b8b7b7" stroke-miterlimit="100" stroke="#b8b7b7" stroke-width=".8" x="115" y="1066"><svg xmlns="http://www.w3.org/2000/svg" xmlns:xlink="http://www.w3.org/1999/xlink" width="6" height="1" viewBox="0.108 0.202 5.673 0.503"><path paint-order="stroke fill markers" fill-rule="evenodd" d="M5.53.202H.36a.251.251 0 0 0 0 .503h5.17a.252.252 0 0 0 0-.503z"/></svg></svg></svg></svg><svg width="10" height="14" xmlns="http://www.w3.org/2000/svg" xmlns:xlink="http://www.w3.org/1999/xlink" xmlns:svgjs="http://svgjs.com/svgjs" viewBox="119 1059 10 14" x="119" y="1059"><svg width="10" height="14" xmlns="http://www.w3.org/2000/svg" xmlns:xlink="http://www.w3.org/1999/xlink" xmlns:svgjs="http://svgjs.com/svgjs" viewBox="119 1059 10 14" x="119" y="1059"><svg width="10" height="14" xmlns="http://www.w3.org/2000/svg" xmlns:xlink="http://www.w3.org/1999/xlink" xmlns:svgjs="http://svgjs.com/svgjs" viewBox="0.182 0 9.636 14" fill="#b8b7b7" stroke-miterlimit="100" stroke="#b8b7b7" stroke-width=".8" x="119" y="1059"><svg xmlns="http://www.w3.org/2000/svg" width="10" height="14" viewBox="0.491 0.875 8.69 12.625"><path paint-order="stroke fill markers" fill-rule="evenodd" d="M9.055 3.441l-.587-.339a1.64 1.64 0 0 0-.708-2.008 1.638 1.638 0 0 0-2.236.6L2.252 7.361a.252.252 0 0 0 .092.343l.098.057-1.724 3.37a.24.24 0 0 0-.011.026l-.003.008-.006.02-.002.008a.277.277 0 0 0-.005.029l-.198 2a.252.252 0 0 0 .397.23l1.633-1.173a.27.27 0 0 0 .032-.027c.002-.003.005-.005.006-.008a.21.21 0 0 0 .026-.032s0 0 0 0 0 0 0 0v-.001l2.057-3.179.099.057a.252.252 0 0 0 .343-.092l3.147-5.45.352.203-1.409 2.44a.252.252 0 1 0 .437.252l1.534-2.658a.252.252 0 0 0-.092-.344zM1.048 12.72l.105-1.059.76.439-.865.62zm1.247-.98l-1.02-.59 1.604-3.135 1.329.767-1.913 2.957zm5.628-8.66l-3.146 5.45-.087-.05-.001-.001L2.9 7.446 2.9 7.445l-.086-.05 3.147-5.45a1.135 1.135 0 0 1 1.548-.415c.542.313.727 1.007.415 1.549z"/></svg></svg></svg></svg></svg>