<svg width="71" height="60" xmlns="http://www.w3.org/2000/svg" xmlns:xlink="http://www.w3.org/1999/xlink" xmlns:svgjs="http://svgjs.com/svgjs" viewBox="285 595 71 60"><svg width="49" height="47" xmlns="http://www.w3.org/2000/svg" xmlns:xlink="http://www.w3.org/1999/xlink" xmlns:svgjs="http://svgjs.com/svgjs" viewBox="300 595 49 47" x="300" y="595"><svg width="30" height="35" xmlns="http://www.w3.org/2000/svg" xmlns:xlink="http://www.w3.org/1999/xlink" xmlns:svgjs="http://svgjs.com/svgjs" viewBox="0.407 0 29.187 35" fill="#d9f3fc" x="303" y="603"><svg xmlns="http://www.w3.org/2000/svg" xmlns:xlink="http://www.w3.org/1999/xlink" width="30" height="35" viewBox="0.501 0.531 28.597 34.293"><path paint-order="stroke fill markers" fill-rule="evenodd" d="M.5.531h28.381s.712 3.09-.446 7.79c-2.976 2.114-4.15 10.925-4.15 15.272 0 .544-.854 2.963 0 3.46.881.535 3.698-1.785 3.921-.775.116 5.644.675 8.546.675 8.546H.501V.531z"/></svg></svg><svg width="49" height="47" xmlns="http://www.w3.org/2000/svg" xmlns:xlink="http://www.w3.org/1999/xlink" xmlns:svgjs="http://svgjs.com/svgjs" viewBox="300 595 49 47" x="300" y="595"><svg width="49" height="47" xmlns="http://www.w3.org/2000/svg" xmlns:xlink="http://www.w3.org/1999/xlink" xmlns:svgjs="http://svgjs.com/svgjs" viewBox="0.245 0 48.509 47" fill="#017387" x="300" y="595"><svg xmlns="http://www.w3.org/2000/svg" xmlns:xlink="http://www.w3.org/1999/xlink" width="49" height="47" viewBox="0 0 48.042 46.548"><path paint-order="stroke fill markers" fill-rule="evenodd" d="M37.29 13.45c-.742 0-1.467.076-2.167.22V8.18c0-1.844-1.5-3.344-3.344-3.344h-5.71v-.257c0-1.56-1.27-2.83-2.83-2.83h-1.803A1.802 1.802 0 0 0 19.638 0h-4.116c-.975 0-1.77.781-1.798 1.75h-1.803c-1.56 0-2.83 1.27-2.83 2.83v.257h-5.71A3.348 3.348 0 0 0 .037 8.18L0 43.204c0 1.844 1.5 3.344 3.343 3.344h19.202a.772.772 0 0 0 0-1.544H3.343c-.992 0-1.8-.807-1.8-1.8L1.581 8.18c0-.993.808-1.801 1.8-1.801h10.34v1.543h-9.31c-.71 0-1.287.577-1.287 1.286v5.66c0 .426 1.543.426 1.543 0V9.465h9.055v1.286c0 .993.807 1.8 1.8 1.8h4.116c.993 0 1.8-.807 1.8-1.8V9.466h9.055v6.412c-.566.463-1.083.981-1.544 1.548v-2.044c0-.71-.577-1.286-1.286-1.286H7.497c-.71 0-1.286.577-1.286 1.286v11.42c0 .71.577 1.286 1.286 1.286h19.63c.014.316-.016.636-.093.95l-.872 3.578h-9.817a.771.771 0 1 0 0 1.543h9.446c-.073.413.055.831.355 1.131.32.322.78.447 1.214.34l3.133-.763-.038 7.05H4.63l.037-23.449a.771.771 0 1 0-1.543 0l-.038 23.707c0 .71.577 1.286 1.287 1.286h26.339c.71 0 1.286-.577 1.286-1.286l.038-7.685.29-.07a3.33 3.33 0 0 1 1.253-.065l-.037 8.849c0 .993-.809 1.8-1.801 1.8h-5.595a.772.772 0 1 0 0 1.544h5.595c1.844 0 3.344-1.5 3.344-3.344l.038-8.471c.71.145 1.435.22 2.168.22 5.928 0 10.751-4.823 10.751-10.751 0-5.929-4.823-10.752-10.752-10.752zM24.525 4.579v.257h-3.087V3.292h1.8c.71 0 1.287.577 1.287 1.287zm-13.89.257v-.257c0-.71.577-1.287 1.286-1.287h1.8v1.544h-3.086zm9.26 5.916a.258.258 0 0 1-.257.257h-4.116a.257.257 0 0 1-.257-.257V1.8c0-.142.115-.258.257-.258h4.116c.141 0 .257.116.257.258v8.95zm10.855-2.83h-9.312V6.38h10.34c.993 0 1.801.808 1.801 1.8v5.931a10.71 10.71 0 0 0-1.543.714V9.208c0-.709-.577-1.286-1.286-1.286zM7.754 15.64h19.652v4.296l.002.034c-.56 1.3-.87 2.73-.87 4.233 0 .792.087 1.577.257 2.343H7.755V15.64zM37.29 33.41c-.938 0-1.863-.14-2.75-.418a4.817 4.817 0 0 0-2.58-.072l-4.555 1.11 1.129-4.625a4.828 4.828 0 0 0-.06-2.54 9.198 9.198 0 0 1-.392-2.663c0-5.078 4.13-9.209 9.209-9.209 5.077 0 9.208 4.131 9.208 9.209 0 5.077-4.131 9.208-9.209 9.208z"/></svg></svg><svg width="17" height="10" xmlns="http://www.w3.org/2000/svg" xmlns:xlink="http://www.w3.org/1999/xlink" xmlns:svgjs="http://svgjs.com/svgjs" viewBox="0 0.642 17 8.716" fill="#017387" x="309" y="611"><svg xmlns="http://www.w3.org/2000/svg" xmlns:xlink="http://www.w3.org/1999/xlink" width="17" height="10" viewBox="0.297 0.846 16.565 8.493"><path paint-order="stroke fill markers" fill-rule="evenodd" d="M16.091 4.356h-1.398a.771.771 0 0 0-.679.405L13 6.64l-1.758-5.273c-.194-.656-1.18-.703-1.437-.071L8.436 4.356h-1.45a.771.771 0 0 0-.697.442l-.476 1.007L4.43 1.768c-.222-.722-1.338-.662-1.482.08l-.571 2.508H1.069a.772.772 0 0 0 0 1.544h1.922c.36 0 .673-.25.753-.6l.106-.464 1.12 3.267c.196.643 1.159.697 1.427.08l1.078-2.284h1.462c.304 0 .58-.178.704-.456l.763-1.708L12.1 8.819c.187.628 1.118.71 1.411.122L15.154 5.9h.937a.772.772 0 0 0 0-1.543z"/></svg></svg><svg width="9" height="3" xmlns="http://www.w3.org/2000/svg" xmlns:xlink="http://www.w3.org/1999/xlink" xmlns:svgjs="http://svgjs.com/svgjs" viewBox="0 0.61 9 1.78" fill="#017387" x="315" y="630"><svg xmlns="http://www.w3.org/2000/svg" xmlns:xlink="http://www.w3.org/1999/xlink" width="9" height="3" viewBox="0.574 0.702 7.803 1.543"><path paint-order="stroke fill markers" fill-rule="evenodd" d="M1.345 2.245h6.26a.772.772 0 0 0 0-1.543h-6.26a.771.771 0 1 0 0 1.543z"/></svg></svg><svg width="9" height="7" xmlns="http://www.w3.org/2000/svg" xmlns:xlink="http://www.w3.org/1999/xlink" xmlns:svgjs="http://svgjs.com/svgjs" viewBox="0 0.042 9 6.916" fill="#017387" x="306" y="626"><svg xmlns="http://www.w3.org/2000/svg" xmlns:xlink="http://www.w3.org/1999/xlink" width="9" height="7" viewBox="0.227 0.21 7.904 6.074"><path paint-order="stroke fill markers" fill-rule="evenodd" d="M2.188 6.058c.299.3.783.302 1.085.006L7.9 1.534A.772.772 0 1 0 6.82.43L2.74 4.427 1.543 3.232a.772.772 0 1 0-1.09 1.092l1.734 1.734z"/></svg></svg><svg width="15" height="15" xmlns="http://www.w3.org/2000/svg" xmlns:xlink="http://www.w3.org/1999/xlink" xmlns:svgjs="http://svgjs.com/svgjs" viewBox="330 611 15 15" x="330" y="611"><svg width="5" height="5" xmlns="http://www.w3.org/2000/svg" xmlns:xlink="http://www.w3.org/1999/xlink" xmlns:svgjs="http://svgjs.com/svgjs" fill="#017387" x="334" y="616"><svg xmlns="http://www.w3.org/2000/svg" xmlns:xlink="http://www.w3.org/1999/xlink" width="5" height="5" viewBox="0.535 0.077 4.231 4.231"><path paint-order="stroke fill markers" fill-rule="evenodd" d="M3.356.783a.705.705 0 1 1 1.41 0v2.82c0 .39-.315.705-.705.705h-2.82a.705.705 0 1 1 0-1.41h2.115V.783z"/></svg></svg><svg width="15" height="15" xmlns="http://www.w3.org/2000/svg" xmlns:xlink="http://www.w3.org/1999/xlink" xmlns:svgjs="http://svgjs.com/svgjs" fill="#017387" x="330" y="611"><svg xmlns="http://www.w3.org/2000/svg" xmlns:xlink="http://www.w3.org/1999/xlink" width="15" height="15" viewBox="0.304 0.846 14.103 14.103"><path paint-order="stroke fill markers" fill-rule="evenodd" d="M14.408 7.898a7.051 7.051 0 1 1-14.103 0 7.051 7.051 0 0 1 14.103 0zm-1.41 0a5.64 5.64 0 1 1-11.283 0 5.64 5.64 0 0 1 11.282 0z"/></svg></svg></svg></svg></svg><svg width="71" height="8" xmlns="http://www.w3.org/2000/svg" xmlns:xlink="http://www.w3.org/1999/xlink" xmlns:svgjs="http://svgjs.com/svgjs" viewBox="0 0.5 71 7" fill="#ecf9fd" x="285" y="647"><svg xmlns="http://www.w3.org/2000/svg" width="71" height="8" viewBox="0 0.694 71 7"><path paint-order="stroke fill markers" fill-rule="evenodd" d="M35.5 7.694C15.868 7.694 0 6.129 0 4.194c0-1.936 15.868-3.5 35.5-3.5C55.13.694 71 2.258 71 4.194c0 1.935-15.869 3.5-35.5 3.5z"/></svg></svg></svg>