<svg width="35" height="34" xmlns="http://www.w3.org/2000/svg" xmlns:xlink="http://www.w3.org/1999/xlink" xmlns:svgjs="http://svgjs.com/svgjs" viewBox="359 352 35 34"><svg width="24" height="23" xmlns="http://www.w3.org/2000/svg" xmlns:xlink="http://www.w3.org/1999/xlink" xmlns:svgjs="http://svgjs.com/svgjs" viewBox="0.5 0 23 23" fill="#ecf9fd" x="365" y="357"><svg xmlns="http://www.w3.org/2000/svg" xmlns:xlink="http://www.w3.org/1999/xlink" width="24" height="23" viewBox="0.265 0.2 22.75 22.75"><path paint-order="stroke fill markers" fill-rule="evenodd" d="M23.015 2.916v17.319A2.718 2.718 0 0 1 20.3 22.95H2.981a2.719 2.719 0 0 1-2.716-2.716V2.915A2.719 2.719 0 0 1 2.98.2h17.318a2.719 2.719 0 0 1 2.716 2.716z"/></svg></svg><svg width="13" height="23" xmlns="http://www.w3.org/2000/svg" xmlns:xlink="http://www.w3.org/1999/xlink" xmlns:svgjs="http://svgjs.com/svgjs" viewBox="0.75 0 11.5 23" fill="#d9f3fc" x="376" y="357"><svg xmlns="http://www.w3.org/2000/svg" xmlns:xlink="http://www.w3.org/1999/xlink" width="13" height="23" viewBox="0.64 0.2 11.375 22.75"><path paint-order="stroke fill markers" fill-rule="evenodd" d="M12.015 2.916v17.319A2.718 2.718 0 0 1 9.3 22.95H.64V.2H9.3a2.719 2.719 0 0 1 2.715 2.716z"/></svg></svg><svg width="34" height="3" xmlns="http://www.w3.org/2000/svg" xmlns:xlink="http://www.w3.org/1999/xlink" xmlns:svgjs="http://svgjs.com/svgjs" viewBox="0 0.5 34 2.001" fill="#58b354" x="360" y="367"><svg xmlns="http://www.w3.org/2000/svg" xmlns:xlink="http://www.w3.org/1999/xlink" width="34" height="3" viewBox="0.072 0.665 33.136 1.95"><path paint-order="stroke fill markers" fill-rule="evenodd" d="M32.24 2.615H1.04c-1.29 0-1.29-1.95 0-1.95h31.2c1.29 0 1.29 1.95 0 1.95z"/></svg></svg><svg width="18" height="3" xmlns="http://www.w3.org/2000/svg" xmlns:xlink="http://www.w3.org/1999/xlink" xmlns:svgjs="http://svgjs.com/svgjs" viewBox="0 0.441 18 2.119" fill="#00a963" x="376" y="367"><svg xmlns="http://www.w3.org/2000/svg" xmlns:xlink="http://www.w3.org/1999/xlink" width="18" height="3" viewBox="0.64 0.665 16.568 1.95"><path paint-order="stroke fill markers" fill-rule="evenodd" d="M16.24 2.615H.64V.665h15.6c1.29 0 1.29 1.95 0 1.95z"/></svg></svg><svg width="10" height="10" xmlns="http://www.w3.org/2000/svg" xmlns:xlink="http://www.w3.org/1999/xlink" xmlns:svgjs="http://svgjs.com/svgjs" fill="#001737" x="384" y="352"><svg xmlns="http://www.w3.org/2000/svg" xmlns:xlink="http://www.w3.org/1999/xlink" width="10" height="10" viewBox="0.058 0 9.223 9.223"><path paint-order="stroke fill markers" fill-rule="evenodd" d="M7.33 8.255V3.597c0-.908-.738-1.647-1.647-1.647H1.025c-1.289 0-1.29-1.95 0-1.95h4.658A3.601 3.601 0 0 1 9.28 3.597v4.658c0 1.29-1.95 1.291-1.95 0z"/></svg></svg><svg width="10" height="10" xmlns="http://www.w3.org/2000/svg" xmlns:xlink="http://www.w3.org/1999/xlink" xmlns:svgjs="http://svgjs.com/svgjs" fill="#001737" x="384" y="376"><svg xmlns="http://www.w3.org/2000/svg" xmlns:xlink="http://www.w3.org/1999/xlink" width="10" height="10" viewBox="0.058 0.058 9.223 9.223"><path paint-order="stroke fill markers" fill-rule="evenodd" d="M5.683 9.28H1.025c-1.289 0-1.29-1.95 0-1.95h4.658c.909 0 1.647-.738 1.647-1.647V1.026c0-1.29 1.95-1.291 1.95 0v4.657a3.601 3.601 0 0 1-3.597 3.598z"/></svg></svg><svg width="11" height="10" xmlns="http://www.w3.org/2000/svg" xmlns:xlink="http://www.w3.org/1999/xlink" xmlns:svgjs="http://svgjs.com/svgjs" viewBox="0.5 0 10 10" fill="#0281b2" x="359" y="352"><svg xmlns="http://www.w3.org/2000/svg" xmlns:xlink="http://www.w3.org/1999/xlink" width="11" height="10" viewBox="1 0 9.223 9.223"><path paint-order="stroke fill markers" fill-rule="evenodd" d="M1 8.255V3.597A3.601 3.601 0 0 1 4.597 0h4.658c1.29 0 1.29 1.95 0 1.95H4.597A1.65 1.65 0 0 0 2.95 3.597v4.658c0 1.29-1.95 1.291-1.95 0z"/></svg></svg><svg width="11" height="10" xmlns="http://www.w3.org/2000/svg" xmlns:xlink="http://www.w3.org/1999/xlink" xmlns:svgjs="http://svgjs.com/svgjs" viewBox="0.5 0 10 10" fill="#0281b2" x="359" y="376"><svg xmlns="http://www.w3.org/2000/svg" xmlns:xlink="http://www.w3.org/1999/xlink" width="11" height="10" viewBox="1 0.058 9.223 9.223"><path paint-order="stroke fill markers" fill-rule="evenodd" d="M9.255 9.28H4.597A3.601 3.601 0 0 1 1 5.684V1.026c0-1.29 1.95-1.291 1.95 0v4.657a1.65 1.65 0 0 0 1.647 1.648h4.658c1.29 0 1.29 1.95 0 1.95z"/></svg></svg><svg width="8" height="7" xmlns="http://www.w3.org/2000/svg" xmlns:xlink="http://www.w3.org/1999/xlink" xmlns:svgjs="http://svgjs.com/svgjs" viewBox="0.5 0 7 7" fill="#001737" x="381" y="373"><svg xmlns="http://www.w3.org/2000/svg" xmlns:xlink="http://www.w3.org/1999/xlink" width="8" height="7" viewBox="0.24 0.175 6.776 6.776"><path paint-order="stroke fill markers" fill-rule="evenodd" d="M4.3 6.95H1.206c-1.29 0-1.29-1.95 0-1.95H4.3a.767.767 0 0 0 .766-.765V1.142c0-1.289 1.95-1.29 1.95 0v3.093A2.719 2.719 0 0 1 4.3 6.95z"/></svg></svg><svg width="8" height="7" xmlns="http://www.w3.org/2000/svg" xmlns:xlink="http://www.w3.org/1999/xlink" xmlns:svgjs="http://svgjs.com/svgjs" viewBox="0.5 0 7 7" fill="#001737" x="381" y="357"><svg xmlns="http://www.w3.org/2000/svg" xmlns:xlink="http://www.w3.org/1999/xlink" width="8" height="7" viewBox="0.24 0.2 6.776 6.776"><path paint-order="stroke fill markers" fill-rule="evenodd" d="M5.065 6.008V2.916A.766.766 0 0 0 4.3 2.15H1.207c-1.29 0-1.29-1.95 0-1.95H4.3a2.719 2.719 0 0 1 2.716 2.716v3.092c0 1.29-1.95 1.291-1.95 0z"/></svg></svg><svg width="8" height="23" xmlns="http://www.w3.org/2000/svg" xmlns:xlink="http://www.w3.org/1999/xlink" xmlns:svgjs="http://svgjs.com/svgjs" viewBox="365 357 8 23" x="365" y="357"><svg width="8" height="7" xmlns="http://www.w3.org/2000/svg" xmlns:xlink="http://www.w3.org/1999/xlink" xmlns:svgjs="http://svgjs.com/svgjs" viewBox="0.5 0 7 7" fill="#0281b2" x="365" y="357"><svg xmlns="http://www.w3.org/2000/svg" xmlns:xlink="http://www.w3.org/1999/xlink" width="8" height="7" viewBox="0.265 0.2 6.776 6.776"><path paint-order="stroke fill markers" fill-rule="evenodd" d="M.265 6.008V2.916A2.719 2.719 0 0 1 2.98.2h3.092c1.29 0 1.291 1.95 0 1.95H2.981a.767.767 0 0 0-.766.766v3.092c0 1.29-1.95 1.291-1.95 0z"/></svg></svg><svg width="8" height="7" xmlns="http://www.w3.org/2000/svg" xmlns:xlink="http://www.w3.org/1999/xlink" xmlns:svgjs="http://svgjs.com/svgjs" viewBox="0.5 0 7 7" fill="#0281b2" x="365" y="373"><svg xmlns="http://www.w3.org/2000/svg" width="8" height="7" viewBox="0.265 0.175 6.776 6.776"><path paint-order="stroke fill markers" fill-rule="evenodd" d="M6.073 6.95H2.981A2.719 2.719 0 0 1 .265 4.236V1.142c0-1.289 1.95-1.29 1.95 0v3.093c0 .422.344.766.766.766h3.092c1.29 0 1.291 1.95 0 1.95z"/></svg></svg></svg></svg>