<svg width="40" height="42" xmlns="http://www.w3.org/2000/svg" xmlns:xlink="http://www.w3.org/1999/xlink" xmlns:svgjs="http://svgjs.com/svgjs" viewBox="358 436 40 42"><svg width="40" height="40" xmlns="http://www.w3.org/2000/svg" xmlns:xlink="http://www.w3.org/1999/xlink" xmlns:svgjs="http://svgjs.com/svgjs" viewBox="0 0 40 39.999" fill="#001737" x="358" y="436"><svg xmlns="http://www.w3.org/2000/svg" xmlns:xlink="http://www.w3.org/1999/xlink" width="40" height="40" viewBox="0 0 39.104 39.103"><path paint-order="stroke fill markers" fill-rule="evenodd" d="M36.378 16.553a16.987 16.987 0 0 0-2.812-6.77.835.835 0 0 1 .093-1.07l.762-.762a.835.835 0 0 0 0-1.18l-2.088-2.088a.835.835 0 0 0-1.18 0l-.761.761a.835.835 0 0 1-1.07.093 16.994 16.994 0 0 0-6.77-2.811.834.834 0 0 1-.689-.821V.835A.835.835 0 0 0 21.028 0h-2.952a.835.835 0 0 0-.834.835v1.07c0 .404-.29.75-.69.821-2.481.441-4.78 1.42-6.77 2.812a.835.835 0 0 1-1.07-.093l-.761-.762a.835.835 0 0 0-1.181 0L4.683 6.77a.835.835 0 0 0 0 1.18l.762.763a.835.835 0 0 1 .093 1.07 16.988 16.988 0 0 0-2.812 6.77.834.834 0 0 1-.822.688H.834a.835.835 0 0 0-.834.835v2.952c0 .461.374.835.835.835h1.07c.404 0 .75.29.821.689a16.998 16.998 0 0 0 2.811 6.77.836.836 0 0 1-.093 1.07l-.76.76a.835.835 0 0 0 0 1.181l2.086 2.088a.835.835 0 0 0 1.18 0l.763-.762a.835.835 0 0 1 1.07-.092 16.983 16.983 0 0 0 6.77 2.811c.398.071.689.417.689.822v1.069c0 .46.373.834.834.834h2.952c.461 0 .835-.373.835-.834v-1.07c0-.404.29-.75.689-.82 2.482-.442 4.78-1.42 6.77-2.812a.835.835 0 0 1 1.07.093l.76.761a.835.835 0 0 0 1.181 0l2.088-2.088a.835.835 0 0 0 0-1.18l-.761-.762a.836.836 0 0 1-.093-1.069 16.998 16.998 0 0 0 2.811-6.77.834.834 0 0 1 .822-.689h1.07a.835.835 0 0 0 .834-.835v-2.952a.835.835 0 0 0-.835-.835H37.2a.834.834 0 0 1-.82-.688zm-2.391 5.31a14.534 14.534 0 0 1-2.598 6.258 14.757 14.757 0 0 1-3.268 3.267 14.546 14.546 0 0 1-8.569 2.782 14.545 14.545 0 0 1-8.569-2.782 14.756 14.756 0 0 1-3.268-3.267 14.533 14.533 0 0 1-2.78-8.569 14.533 14.533 0 0 1 2.78-8.569 14.756 14.756 0 0 1 3.269-3.267 14.546 14.546 0 0 1 8.568-2.781 14.559 14.559 0 0 1 8.568 2.78 14.757 14.757 0 0 1 3.27 3.268 14.543 14.543 0 0 1 2.78 8.57c0 .785-.062 1.557-.183 2.31z"/></svg></svg><svg width="3" height="9" xmlns="http://www.w3.org/2000/svg" xmlns:xlink="http://www.w3.org/1999/xlink" xmlns:svgjs="http://svgjs.com/svgjs" viewBox="0.11 0 2.78 9" fill="#f3bf30" x="368" y="459"><svg xmlns="http://www.w3.org/2000/svg" xmlns:xlink="http://www.w3.org/1999/xlink" width="3" height="9" viewBox="0.306 0.969 2.445 7.914"><path paint-order="stroke fill markers" fill-rule="evenodd" d="M2.751 1.627v7.256a1.489 1.489 0 0 0-.118-.004H.426c-.04 0-.08.001-.12.004V1.627C.306 1.265.854.97 1.53.97c.338 0 .643.075.864.193.22.12.358.283.358.465z"/></svg></svg><svg width="3" height="6" xmlns="http://www.w3.org/2000/svg" xmlns:xlink="http://www.w3.org/1999/xlink" xmlns:svgjs="http://svgjs.com/svgjs" viewBox="0.136 0 2.727 6" fill="#f3bf30" x="368" y="472"><svg xmlns="http://www.w3.org/2000/svg" xmlns:xlink="http://www.w3.org/1999/xlink" width="3" height="6" viewBox="0.306 0.175 2.445 5.378"><path paint-order="stroke fill markers" fill-rule="evenodd" d="M2.633.18c.039 0 .08-.002.118-.005v4.72c0 .362-.546.658-1.221.658-.338 0-.645-.075-.866-.193-.22-.12-.358-.284-.358-.466V.174c.04.004.08.005.12.005h2.207z"/></svg></svg><svg width="5" height="4" xmlns="http://www.w3.org/2000/svg" xmlns:xlink="http://www.w3.org/1999/xlink" xmlns:svgjs="http://svgjs.com/svgjs" viewBox="0 0.416 5 3.169" fill="#f3bf30" x="367" y="468"><svg xmlns="http://www.w3.org/2000/svg" width="5" height="4" viewBox="0.118 0.501 4.823 3.057"><path paint-order="stroke fill markers" fill-rule="evenodd" d="M4.94 2.04V2.02C4.94 1.184 4.259.5 3.424.5H1.635C.8.501.118 1.184.118 2.02v.021c0 .835.682 1.518 1.517 1.518h1.788c.835 0 1.518-.683 1.518-1.518z"/></svg></svg></svg>