<svg width="71" height="62" xmlns="http://www.w3.org/2000/svg" xmlns:xlink="http://www.w3.org/1999/xlink" xmlns:svgjs="http://svgjs.com/svgjs" viewBox="285 935 71 62"><svg width="43" height="50" xmlns="http://www.w3.org/2000/svg" xmlns:xlink="http://www.w3.org/1999/xlink" xmlns:svgjs="http://svgjs.com/svgjs" viewBox="299 935 43 50" x="299" y="935"><svg width="43" height="45" xmlns="http://www.w3.org/2000/svg" xmlns:xlink="http://www.w3.org/1999/xlink" xmlns:svgjs="http://svgjs.com/svgjs" viewBox="299 935 43 45" x="299" y="935"><svg width="28" height="36" xmlns="http://www.w3.org/2000/svg" xmlns:xlink="http://www.w3.org/1999/xlink" xmlns:svgjs="http://svgjs.com/svgjs" viewBox="313 936 28 36" x="313" y="936"><svg width="1" height="1" xmlns="http://www.w3.org/2000/svg" xmlns:xlink="http://www.w3.org/1999/xlink" xmlns:svgjs="http://svgjs.com/svgjs" viewBox="0 0.161 1 0.677" fill="#d3e6f0" x="333" y="970"><svg xmlns="http://www.w3.org/2000/svg" xmlns:xlink="http://www.w3.org/1999/xlink" width="1" height="1" viewBox="0.314 0.715 0.157 0.106"><path paint-order="stroke fill markers" fill-rule="evenodd" d="M.47.715z"/></svg></svg><svg width="1" height="1" xmlns="http://www.w3.org/2000/svg" xmlns:xlink="http://www.w3.org/1999/xlink" xmlns:svgjs="http://svgjs.com/svgjs" viewBox="0 0.192 1 0.616" fill="#d3e6f0" x="333" y="970"><svg xmlns="http://www.w3.org/2000/svg" xmlns:xlink="http://www.w3.org/1999/xlink" width="1" height="1" viewBox="0.102 0.864 0.176 0.109"><path paint-order="stroke fill markers" fill-rule="evenodd" d="M.278.864z"/></svg></svg><svg width="1" height="1" xmlns="http://www.w3.org/2000/svg" xmlns:xlink="http://www.w3.org/1999/xlink" xmlns:svgjs="http://svgjs.com/svgjs" viewBox="0 0.127 1 0.745" fill="#d3e6f0" x="333" y="970"><svg xmlns="http://www.w3.org/2000/svg" xmlns:xlink="http://www.w3.org/1999/xlink" width="1" height="1" viewBox="0.523 0.553 0.137 0.102"><path paint-order="stroke fill markers" fill-rule="evenodd" d="M.66.553z"/></svg></svg><svg width="2" height="1" xmlns="http://www.w3.org/2000/svg" xmlns:xlink="http://www.w3.org/1999/xlink" xmlns:svgjs="http://svgjs.com/svgjs" viewBox="0.446 0 1.108 1" fill="#d3e6f0" x="333" y="970"><svg xmlns="http://www.w3.org/2000/svg" xmlns:xlink="http://www.w3.org/1999/xlink" width="2" height="1" viewBox="0.94 0.191 0.085 0.076"><path paint-order="stroke fill markers" fill-rule="evenodd" d="M1.024.19C.997.218.968.243.94.268c.028-.025.057-.05.084-.076z"/></svg></svg><svg width="1" height="1" xmlns="http://www.w3.org/2000/svg" xmlns:xlink="http://www.w3.org/1999/xlink" xmlns:svgjs="http://svgjs.com/svgjs" viewBox="0 0.089 1 0.822" fill="#d3e6f0" x="333" y="970"><svg xmlns="http://www.w3.org/2000/svg" xmlns:xlink="http://www.w3.org/1999/xlink" width="1" height="1" viewBox="0.73 0.378 0.114 0.094"><path paint-order="stroke fill markers" fill-rule="evenodd" d="M.844.378C.807.41.77.441.73.472.77.441.807.41.844.378z"/></svg></svg><svg width="2" height="1" xmlns="http://www.w3.org/2000/svg" xmlns:xlink="http://www.w3.org/1999/xlink" xmlns:svgjs="http://svgjs.com/svgjs" viewBox="0.095 0 1.809 1" fill="#d3e6f0" x="332" y="971"><svg xmlns="http://www.w3.org/2000/svg" xmlns:xlink="http://www.w3.org/1999/xlink" width="2" height="1" viewBox="0.887 0.001 0.197 0.109"><path paint-order="stroke fill markers" fill-rule="evenodd" d="M1.085.001z"/></svg></svg><svg width="28" height="36" xmlns="http://www.w3.org/2000/svg" xmlns:xlink="http://www.w3.org/1999/xlink" xmlns:svgjs="http://svgjs.com/svgjs" viewBox="0.129 0 27.743 36" fill="#d3e6f0" x="313" y="936"><svg xmlns="http://www.w3.org/2000/svg" xmlns:xlink="http://www.w3.org/1999/xlink" width="28" height="36" viewBox="0.79 0.969 26.837 34.825"><path paint-order="stroke fill markers" fill-rule="evenodd" d="M19.691 30.154c0-1.217 1.032-2.204 2.306-2.204h5.193a4.71 4.71 0 0 0 .438-1.977V3.608c0-1.457-1.236-2.639-2.76-2.639H3.55c-1.524 0-2.76 1.182-2.76 2.64v8.912c.53.118 1.05.31 1.546.584 2.704 1.493 3.63 4.798 2.07 7.383l-3.485 5.77-.132.216v.305a9.025 9.025 0 0 1 4.038-.98H4.9c4.827 0 8.74 3.74 8.74 8.355 0 .562-.059 1.11-.17 1.64h4.053a5.302 5.302 0 0 0 2.167-.462v-5.178z"/></svg></svg><svg width="1" height="1" xmlns="http://www.w3.org/2000/svg" xmlns:xlink="http://www.w3.org/1999/xlink" xmlns:svgjs="http://svgjs.com/svgjs" viewBox="0.114 0 0.773 1" fill="#d3e6f0" x="339" y="963"><svg xmlns="http://www.w3.org/2000/svg" xmlns:xlink="http://www.w3.org/1999/xlink" width="1" height="1" viewBox="0.323 0.484 0.093 0.12"><path paint-order="stroke fill markers" fill-rule="evenodd" d="M.416.484l-.093.12.093-.12z"/></svg></svg><svg width="2" height="1" xmlns="http://www.w3.org/2000/svg" xmlns:xlink="http://www.w3.org/1999/xlink" xmlns:svgjs="http://svgjs.com/svgjs" viewBox="0.739 0 0.522 1" fill="#d3e6f0" x="339" y="964"><svg xmlns="http://www.w3.org/2000/svg" xmlns:xlink="http://www.w3.org/1999/xlink" width="2" height="1" viewBox="0.9 0.121 0.107 0.205"><path paint-order="stroke fill markers" fill-rule="evenodd" d="M1.007.121z"/></svg></svg><svg width="1" height="1" xmlns="http://www.w3.org/2000/svg" xmlns:xlink="http://www.w3.org/1999/xlink" xmlns:svgjs="http://svgjs.com/svgjs" viewBox="0.18 0 0.64 1" fill="#d3e6f0" x="339" y="964"><svg xmlns="http://www.w3.org/2000/svg" xmlns:xlink="http://www.w3.org/1999/xlink" width="1" height="1" viewBox="0.635 0.522 0.106 0.165"><path paint-order="stroke fill markers" fill-rule="evenodd" d="M.74.522z"/></svg></svg><svg width="1" height="1" xmlns="http://www.w3.org/2000/svg" xmlns:xlink="http://www.w3.org/1999/xlink" xmlns:svgjs="http://svgjs.com/svgjs" viewBox="0.21 0 0.581 1" fill="#d3e6f0" x="339" y="964"><svg xmlns="http://www.w3.org/2000/svg" xmlns:xlink="http://www.w3.org/1999/xlink" width="1" height="1" viewBox="0.773 0.323 0.107 0.185"><path paint-order="stroke fill markers" fill-rule="evenodd" d="M.88.323z"/></svg></svg><svg width="6" height="6" xmlns="http://www.w3.org/2000/svg" xmlns:xlink="http://www.w3.org/1999/xlink" xmlns:svgjs="http://svgjs.com/svgjs" viewBox="0.098 0 5.803 6" fill="#d3e6f0" x="333" y="964"><svg xmlns="http://www.w3.org/2000/svg" xmlns:xlink="http://www.w3.org/1999/xlink" width="6" height="6" viewBox="0.182 0.011 5.783 5.979"><path paint-order="stroke fill markers" fill-rule="evenodd" d="M.182 5.99L5.964.014 5.965.01v.002L.181 5.99z"/></svg></svg><svg width="1" height="1" xmlns="http://www.w3.org/2000/svg" xmlns:xlink="http://www.w3.org/1999/xlink" xmlns:svgjs="http://svgjs.com/svgjs" viewBox="0.148 0 0.703 1" fill="#d3e6f0" x="339" y="964"><svg xmlns="http://www.w3.org/2000/svg" xmlns:xlink="http://www.w3.org/1999/xlink" width="1" height="1" viewBox="0.485 0.72 0.101 0.144"><path paint-order="stroke fill markers" fill-rule="evenodd" d="M.586.72z"/></svg></svg><svg width="1" height="1" xmlns="http://www.w3.org/2000/svg" xmlns:xlink="http://www.w3.org/1999/xlink" xmlns:svgjs="http://svgjs.com/svgjs" viewBox="0.076 0 0.848 1" fill="#d3e6f0" x="339" y="963"><svg xmlns="http://www.w3.org/2000/svg" xmlns:xlink="http://www.w3.org/1999/xlink" width="1" height="1" viewBox="0.149 0.723 0.075 0.088"><path paint-order="stroke fill markers" fill-rule="evenodd" d="M.224.723L.15.81.224.723z"/></svg></svg></svg><svg width="10" height="10" xmlns="http://www.w3.org/2000/svg" xmlns:xlink="http://www.w3.org/1999/xlink" xmlns:svgjs="http://svgjs.com/svgjs" viewBox="0.145 0 9.71 10" fill="#b7c8d2" x="331" y="964"><svg xmlns="http://www.w3.org/2000/svg" xmlns:xlink="http://www.w3.org/1999/xlink" width="10" height="10" viewBox="0.437 0.235 8.683 8.943"><path paint-order="stroke fill markers" fill-rule="evenodd" d="M8.224 1.666c.033-.04.067-.078.099-.118l.093-.12.069-.092a6.404 6.404 0 0 0 .255-.38l.033-.053a6.11 6.11 0 0 0 .108-.186L8.9.682a6.66 6.66 0 0 0 .107-.205l.009-.018c.036-.074.071-.149.105-.224H3.107a2.67 2.67 0 0 0-2.67 2.67v6.273a5.388 5.388 0 0 0 .447-.234l.049-.028c.06-.035.118-.071.177-.109l.067-.043a6.36 6.36 0 0 0 .156-.106l.083-.06c.046-.033.092-.067.137-.102l.101-.08.114-.095c.043-.036.084-.073.125-.11l.086-.077c.069-.065.137-.132.203-.2l5.782-5.978.002-.002c.063-.065.124-.132.184-.2l.074-.088z"/></svg></svg><svg width="1" height="2" xmlns="http://www.w3.org/2000/svg" xmlns:xlink="http://www.w3.org/1999/xlink" xmlns:svgjs="http://svgjs.com/svgjs" viewBox="0 0.813 1 0.373" fill="#ee5793" x="307" y="971"><svg xmlns="http://www.w3.org/2000/svg" xmlns:xlink="http://www.w3.org/1999/xlink" width="1" height="2" viewBox="0.271 0.794 0.589 0.22"><path paint-order="stroke fill markers" fill-rule="evenodd" d="M.86.794z"/></svg></svg><svg width="19" height="18" xmlns="http://www.w3.org/2000/svg" xmlns:xlink="http://www.w3.org/1999/xlink" xmlns:svgjs="http://svgjs.com/svgjs" viewBox="0.163 0 18.674 18" fill="#ee5793" x="300" y="949"><svg xmlns="http://www.w3.org/2000/svg" xmlns:xlink="http://www.w3.org/1999/xlink" width="19" height="18" viewBox="0.394 0.054 17.681 17.043"><path paint-order="stroke fill markers" fill-rule="evenodd" d="M4.254 9.586l9.643 6.08 3.43-6.492c1.539-2.908.626-6.626-2.036-8.305a5.303 5.303 0 0 0-1.524-.657C11.443-.38 8.942.72 7.687 3.094L.822 16.077l3.431-6.491z"/></svg></svg><svg width="1" height="2" xmlns="http://www.w3.org/2000/svg" xmlns:xlink="http://www.w3.org/1999/xlink" xmlns:svgjs="http://svgjs.com/svgjs" viewBox="0.379 0 0.243 2" fill="#ee5793" x="300" y="965"><svg xmlns="http://www.w3.org/2000/svg" xmlns:xlink="http://www.w3.org/1999/xlink" width="1" height="2" viewBox="0.023 0.306 0.144 1.185"><path paint-order="stroke fill markers" fill-rule="evenodd" d="M.023 1.491z"/></svg></svg><svg width="8" height="7" xmlns="http://www.w3.org/2000/svg" xmlns:xlink="http://www.w3.org/1999/xlink" xmlns:svgjs="http://svgjs.com/svgjs" viewBox="0.02 0 7.96 7" fill="#ee5793" x="300" y="966"><svg xmlns="http://www.w3.org/2000/svg" xmlns:xlink="http://www.w3.org/1999/xlink" width="8" height="7" viewBox="0.021 0.066 7.285 6.406"><path paint-order="stroke fill markers" fill-rule="evenodd" d="M3.294 5.595z"/></svg></svg><svg width="2" height="1" xmlns="http://www.w3.org/2000/svg" xmlns:xlink="http://www.w3.org/1999/xlink" xmlns:svgjs="http://svgjs.com/svgjs" viewBox="0 0.305 2 0.39" fill="#ee5793" x="307" y="972"><svg xmlns="http://www.w3.org/2000/svg" xmlns:xlink="http://www.w3.org/1999/xlink" width="2" height="1" viewBox="0.381 0.067 0.88 0.172"><path paint-order="stroke fill markers" fill-rule="evenodd" d="M1.261.067z"/></svg></svg><svg width="1" height="1" xmlns="http://www.w3.org/2000/svg" xmlns:xlink="http://www.w3.org/1999/xlink" xmlns:svgjs="http://svgjs.com/svgjs" viewBox="0 0.194 1 0.612" fill="#ee5793" x="308" y="971"><svg xmlns="http://www.w3.org/2000/svg" xmlns:xlink="http://www.w3.org/1999/xlink" width="1" height="1" viewBox="0.365 0.329 0.335 0.205"><path paint-order="stroke fill markers" fill-rule="evenodd" d="M.7.33z"/></svg></svg><svg width="17" height="17" xmlns="http://www.w3.org/2000/svg" xmlns:xlink="http://www.w3.org/1999/xlink" xmlns:svgjs="http://svgjs.com/svgjs" viewBox="0.282 0 16.436 17" fill="#3796d2" x="300" y="956"><svg xmlns="http://www.w3.org/2000/svg" xmlns:xlink="http://www.w3.org/1999/xlink" width="17" height="17" viewBox="0.02 0.128 16.252 16.809"><path paint-order="stroke fill markers" fill-rule="evenodd" d="M15.806 7.48l.314-.544.151-.262L4.933.128.898 7.118a6.55 6.55 0 0 0-.731 1.895A6.501 6.501 0 0 0 .02 10.53a6.543 6.543 0 0 0 3.273 5.53 6.517 6.517 0 0 0 4.012.834l.075-.009a6.587 6.587 0 0 0 2.057-.61 6.697 6.697 0 0 0 .716-.41 6.73 6.73 0 0 0 .363-.252c.094-.072.186-.146.277-.223a10.122 10.122 0 0 1 5.012-7.91z"/></svg></svg><svg width="1" height="2" xmlns="http://www.w3.org/2000/svg" xmlns:xlink="http://www.w3.org/1999/xlink" xmlns:svgjs="http://svgjs.com/svgjs" viewBox="0 0.078 1 1.844" fill="#ffcd40" x="325" y="974"><svg xmlns="http://www.w3.org/2000/svg" xmlns:xlink="http://www.w3.org/1999/xlink" width="1" height="2" viewBox="0.548 0.797 0.233 0.43"><path paint-order="stroke fill markers" fill-rule="evenodd" d="M.781.797z"/></svg></svg><svg width="1" height="1" xmlns="http://www.w3.org/2000/svg" xmlns:xlink="http://www.w3.org/1999/xlink" xmlns:svgjs="http://svgjs.com/svgjs" viewBox="0.18 0 0.64 1" fill="#ffcd40" x="325" y="975"><svg xmlns="http://www.w3.org/2000/svg" xmlns:xlink="http://www.w3.org/1999/xlink" width="1" height="1" viewBox="0.21 0.437 0.263 0.411"><path paint-order="stroke fill markers" fill-rule="evenodd" d="M.473.437z"/></svg></svg><svg width="2" height="1" xmlns="http://www.w3.org/2000/svg" xmlns:xlink="http://www.w3.org/1999/xlink" xmlns:svgjs="http://svgjs.com/svgjs" viewBox="0.476 0 1.049 1" fill="#ffcd40" x="323" y="977"><svg xmlns="http://www.w3.org/2000/svg" xmlns:xlink="http://www.w3.org/1999/xlink" width="2" height="1" viewBox="0.828 0.345 0.352 0.335"><path paint-order="stroke fill markers" fill-rule="evenodd" d="M1.18.345z"/></svg></svg><svg width="1" height="2" xmlns="http://www.w3.org/2000/svg" xmlns:xlink="http://www.w3.org/1999/xlink" xmlns:svgjs="http://svgjs.com/svgjs" viewBox="0.12 0 0.76 2" fill="#ffcd40" x="326" y="973"><svg xmlns="http://www.w3.org/2000/svg" xmlns:xlink="http://www.w3.org/1999/xlink" width="1" height="2" viewBox="0.018 0.435 0.264 0.694"><path paint-order="stroke fill markers" fill-rule="evenodd" d="M.281.435z"/></svg></svg><svg width="1" height="1" xmlns="http://www.w3.org/2000/svg" xmlns:xlink="http://www.w3.org/1999/xlink" xmlns:svgjs="http://svgjs.com/svgjs" viewBox="0 0.274 1 0.452" fill="#ffcd40" x="321" y="979"><svg xmlns="http://www.w3.org/2000/svg" xmlns:xlink="http://www.w3.org/1999/xlink" width="1" height="1" viewBox="0.341 0.312 0.448 0.202"><path paint-order="stroke fill markers" fill-rule="evenodd" d="M.79.312z"/></svg></svg><svg width="2" height="1" xmlns="http://www.w3.org/2000/svg" xmlns:xlink="http://www.w3.org/1999/xlink" xmlns:svgjs="http://svgjs.com/svgjs" viewBox="0 0.106 2 0.789" fill="#ffcd40" x="320" y="979"><svg xmlns="http://www.w3.org/2000/svg" xmlns:xlink="http://www.w3.org/1999/xlink" width="2" height="1" viewBox="0.942 0.514 0.46 0.181"><path paint-order="stroke fill markers" fill-rule="evenodd" d="M1.402.514z"/></svg></svg><svg width="2" height="1" xmlns="http://www.w3.org/2000/svg" xmlns:xlink="http://www.w3.org/1999/xlink" xmlns:svgjs="http://svgjs.com/svgjs" viewBox="0.607 0 0.786 1" fill="#ffcd40" x="324" y="976"><svg xmlns="http://www.w3.org/2000/svg" xmlns:xlink="http://www.w3.org/1999/xlink" width="2" height="1" viewBox="0.542 0.048 0.601 0.765"><path paint-order="stroke fill markers" fill-rule="evenodd" d="M1.143.048z"/></svg></svg><svg width="3" height="2" xmlns="http://www.w3.org/2000/svg" xmlns:xlink="http://www.w3.org/1999/xlink" xmlns:svgjs="http://svgjs.com/svgjs" viewBox="0 0.089 3 1.822" fill="#ffcd40" x="321" y="978"><svg xmlns="http://www.w3.org/2000/svg" xmlns:xlink="http://www.w3.org/1999/xlink" width="3" height="2" viewBox="0.639 0.299 1.668 1.013"><path paint-order="stroke fill markers" fill-rule="evenodd" d="M2.306.3z"/></svg></svg><svg width="1" height="2" xmlns="http://www.w3.org/2000/svg" xmlns:xlink="http://www.w3.org/1999/xlink" xmlns:svgjs="http://svgjs.com/svgjs" viewBox="0 0.588 1 0.825" fill="#ffcd40" x="323" y="977"><svg xmlns="http://www.w3.org/2000/svg" xmlns:xlink="http://www.w3.org/1999/xlink" width="1" height="2" viewBox="0.345 0.842 0.375 0.31"><path paint-order="stroke fill markers" fill-rule="evenodd" d="M.72.842z"/></svg></svg><svg width="1" height="4" xmlns="http://www.w3.org/2000/svg" xmlns:xlink="http://www.w3.org/1999/xlink" xmlns:svgjs="http://svgjs.com/svgjs" viewBox="0.172 0 0.655 4" fill="#ffcd40" x="326" y="971"><svg xmlns="http://www.w3.org/2000/svg" xmlns:xlink="http://www.w3.org/1999/xlink" width="1" height="4" viewBox="0.222 0.311 0.532 3.246"><path paint-order="stroke fill markers" fill-rule="evenodd" d="M.754.31a10.11 10.11 0 0 1 0 .001z"/></svg></svg><svg width="43" height="41" xmlns="http://www.w3.org/2000/svg" xmlns:xlink="http://www.w3.org/1999/xlink" xmlns:svgjs="http://svgjs.com/svgjs" viewBox="0 0.784 43 39.431" fill="#017387" x="299" y="935"><svg xmlns="http://www.w3.org/2000/svg" xmlns:xlink="http://www.w3.org/1999/xlink" width="43" height="41" viewBox="0 0.946 42.651 39.111"><path paint-order="stroke fill markers" fill-rule="evenodd" d="M41.267 31.923l.05-.06c.046-.058.092-.117.136-.177l.024-.03a5.986 5.986 0 0 0 1.174-3.571V4.604A3.661 3.661 0 0 0 38.994.946H17.605a3.661 3.661 0 0 0-3.656 3.658v8.337a6.624 6.624 0 0 0-2.968.511 6.5 6.5 0 0 0-3.11 2.756l-3.497 6.058-3.497 6.058a6.52 6.52 0 0 0-.858 3.765 6.633 6.633 0 0 0 .605 2.301l.04.091a6.529 6.529 0 0 0 2.614 2.805c.033.02.067.037.1.056l.09.05.07.036c.042.021.082.043.124.063l.045.021c.05.025.102.05.154.073l.01.004a6.545 6.545 0 0 0 5.433-.028l.02-.009.019-.008c.198 2.238 13.561.439 18.914 1.738h3.369c.862 0 1.71-.19 2.486-.542l.064-.026c.115-.054.226-.112.337-.172l.001-.001c.086-.047.17-.096.253-.146l.014-.01c.079-.047.155-.098.232-.15l.023-.015c.072-.05.143-.1.212-.153l.034-.026c.066-.05.129-.1.192-.152l.044-.037c.06-.05.116-.102.174-.154l.048-.044c.069-.064.136-.13.201-.197l.008-.008 5.01-5.181c.042-.043.081-.087.12-.13l.064-.068c.042-.048.083-.098.124-.147zM9.407 17.095A4.827 4.827 0 0 1 13.57 14.7c.353 0 .71.04 1.064.123a4.795 4.795 0 0 1 3.704 4.67c0 .835-.222 1.661-.642 2.388l-3.054 5.29-8.29-4.787 3.054-5.29zM9.191 35.6c-.04.026-.078.052-.119.076-.016.011-.034.02-.051.031l-.104.061-.064.035-.094.05-.075.038-.083.04a3.415 3.415 0 0 1-.158.072c-.034.014-.069.029-.104.042l-.052.02-.124.047-.025.009a4.81 4.81 0 0 1-3.176-.004l-.005-.001A4.648 4.648 0 0 1 4.661 36l-.041-.018-.11-.05a3.586 3.586 0 0 1-.155-.077l-.044-.023a4.795 4.795 0 0 1-1.9-6.622l3.055-5.29 8.15 4.707-.087.06-.103.07-.04.029-.073.053-.004.002-.1.074a3.525 3.525 0 0 0-.047.035l-.08.06-.087.067-.053.043-.083.067-.072.058-.06.05-.084.074c-.02.016-.04.033-.058.05l-.066.06-.087.077-.044.04-.072.07a13.545 13.545 0 0 0-.201.197c-.029.027-.057.056-.085.084l-.016.017-.097.102-.076.081-.007.009c-.035.037-.068.075-.101.113l-.067.074-.016.019-.089.106-.07.084-.058.071-.038.048-.07.089-.024.03a4.722 4.722 0 0 0-.07.094 3.929 3.929 0 0 0-.064.085l-.031.043c-.023.031-.044.063-.066.094l-.055.078a3.377 3.377 0 0 0-.038.055l-.062.092a12.697 12.697 0 0 0-.148.23l-.039.063-.049.08-.053.09-.032.055-.053.094-.05.089a1.368 1.368 0 0 0-.027.051l-.055.102-.075.145-.049.1-.072.15-.045.097-.005.012-.02.044-.045.101-.036.087c-.01.02-.018.04-.026.061l-.045.11-.029.072-.026.069-.045.119-.021.059-.026.075-.045.129-.015.046a10.38 10.38 0 0 0-.155.52l-.015.06a9.517 9.517 0 0 0-.089.372l-.013.058-.035.18-.018.094-.003.013-.025.154-.016.096-.004.027-.02.144-.005.035-.007.058c-.05.037-.101.072-.152.106l-.035.023zm1.884 1.073a7.557 7.557 0 0 1 .052-.903c.017-.15.038-.298.064-.446l.004-.026c.01-.057.021-.114.033-.17l.012-.064a5.207 5.207 0 0 1 .052-.231c.01-.045.022-.088.033-.132l.025-.098.035-.12.03-.107.037-.11c.011-.039.023-.077.036-.115l.037-.105.041-.117.04-.101.045-.118.041-.096c.017-.04.033-.081.051-.12l.042-.092.056-.122.043-.087c.02-.041.04-.083.062-.124l.044-.084.066-.123.047-.081.07-.122c.015-.027.032-.054.048-.08l.074-.12.051-.08c.025-.038.05-.078.077-.117l.054-.077.08-.115.056-.076.084-.113.06-.074c.028-.037.056-.074.086-.11l.062-.075.089-.105.065-.074.091-.102c.022-.025.046-.048.068-.072l.094-.1.07-.07.098-.096.073-.07c.033-.03.065-.062.099-.092l.076-.068c.034-.03.067-.06.101-.088.027-.024.054-.046.081-.068l.101-.084.085-.067.103-.08.087-.064.105-.077.09-.063c.036-.024.072-.05.108-.073l.093-.06c.036-.024.072-.048.108-.07l.098-.06c.036-.02.07-.043.107-.064l.013-.007a7.602 7.602 0 0 1 .388-.21c.105-.053.21-.104.317-.153l.004-.001A7.884 7.884 0 0 1 18 28.848c-3.892 15.175-6.924 11.835-6.924 7.826zm8.696-7.844h.007a8.289 8.289 0 0 1 .7.106l.04.007a7.744 7.744 0 0 1 .669.167l.052.015a7.994 7.994 0 0 1 .64.225l.046.018c.098.04.195.082.291.125l.035.017c.1.046.197.093.294.143l.017.009c.095.048.189.1.282.153l.027.015c.092.052.182.107.271.163l.041.026a7.377 7.377 0 0 1 .591.416 7.933 7.933 0 0 1 .505.426l.039.036c.075.07.15.141.223.214l.028.03c.075.075.149.153.221.232l.013.014a7.89 7.89 0 0 1 .425.512l.03.038c.06.082.12.165.179.249l.031.045a6.897 6.897 0 0 1 .197.303c.053.086.105.173.155.261.01.016.018.033.027.049.05.09.1.18.145.272l.022.043c.047.094.093.19.137.287l.013.031c.046.102.089.204.13.308l.003.008c.04.103.08.208.116.314l.01.027c.035.103.067.207.098.312l.012.042c.03.102.057.205.083.309l.012.05c.024.102.047.206.067.31l.01.053a7.56 7.56 0 0 1 .1.693l.003.043c.01.113.019.226.024.34l.001.028a8.026 8.026 0 0 1 0 .746l-.006.08a7.013 7.013 0 0 1-.023.303l-.015.126c-.01.083-.018.167-.03.25l-.03.176c-.01.064-.021.128-.034.192l-6.924-9.357zm8.807 8.68l.002-.023c.01-.123.018-.248.024-.373l.002-.057a9.618 9.618 0 0 0-.35-2.988h1.599a.886.886 0 1 0 0-1.773h-2.29c-1.6-3.131-4.857-5.28-8.607-5.28h-.057-.017-.007c-.1.001-.202.004-.304.008-.021 0-.043.003-.065.004-.077.003-.152.007-.229.012l-.13.011a8.029 8.029 0 0 0-.161.015c-.053.005-.107.011-.16.018l-.13.015-.178.026a9.165 9.165 0 0 0-.59.108l-.089.019c-.066.015-.133.03-.2.047l-.03.007 2.619-4.537a6.558 6.558 0 0 0 .879-3.275 6.586 6.586 0 0 0-3.525-5.821l-.078-.04a7.317 7.317 0 0 0-.445-.204c-.026-.01-.05-.022-.077-.032a7.008 7.008 0 0 0-.264-.1V4.604c0-1.04.845-1.885 1.884-1.885h21.39c1.038 0 1.883.845 1.883 1.885v23.48c0 .408-.058.808-.169 1.19h-4.595a3.204 3.204 0 0 0-3.2 3.2v4.833a4.239 4.239 0 0 1-1.288.202h-3.047zm6.107-1.305v-3.73c0-.788.64-1.429 1.428-1.429h3.56l-4.582 4.74-.406.419z"/></svg></svg><svg width="19" height="3" xmlns="http://www.w3.org/2000/svg" xmlns:xlink="http://www.w3.org/1999/xlink" xmlns:svgjs="http://svgjs.com/svgjs" viewBox="0 0.438 19 2.125" fill="#017387" x="317" y="943"><svg xmlns="http://www.w3.org/2000/svg" xmlns:xlink="http://www.w3.org/1999/xlink" width="19" height="3" viewBox="0.491 0.823 18.292 2.045"><path paint-order="stroke fill markers" fill-rule="evenodd" d="M1.514 2.869H17.76a1.023 1.023 0 0 0 0-2.046H1.514a1.023 1.023 0 1 0 0 2.046z"/></svg></svg><svg width="3" height="3" xmlns="http://www.w3.org/2000/svg" xmlns:xlink="http://www.w3.org/1999/xlink" xmlns:svgjs="http://svgjs.com/svgjs" viewBox="0 0.001 3 2.998" fill="#017387" x="332" y="951"><svg xmlns="http://www.w3.org/2000/svg" xmlns:xlink="http://www.w3.org/1999/xlink" width="3" height="3" viewBox="0.401 0.582 2.047 2.045"><path paint-order="stroke fill markers" fill-rule="evenodd" d="M1.425.582h-.002a1.022 1.022 0 1 0 .002 2.045 1.023 1.023 0 1 0 0-2.045z"/></svg></svg><svg width="15" height="3" xmlns="http://www.w3.org/2000/svg" xmlns:xlink="http://www.w3.org/1999/xlink" xmlns:svgjs="http://svgjs.com/svgjs" viewBox="0 0.419 15 2.162" fill="#017387" x="318" y="951"><svg xmlns="http://www.w3.org/2000/svg" xmlns:xlink="http://www.w3.org/1999/xlink" width="15" height="3" viewBox="0.075 0.582 14.192 2.045"><path paint-order="stroke fill markers" fill-rule="evenodd" d="M14.267 1.605c0-.565-.458-1.023-1.023-1.023H1.098a1.023 1.023 0 0 0 0 2.045h12.146c.565 0 1.023-.457 1.023-1.022z"/></svg></svg><svg width="14" height="3" xmlns="http://www.w3.org/2000/svg" xmlns:xlink="http://www.w3.org/1999/xlink" xmlns:svgjs="http://svgjs.com/svgjs" viewBox="0 0.425 14 2.151" fill="#017387" x="322" y="959"><svg xmlns="http://www.w3.org/2000/svg" xmlns:xlink="http://www.w3.org/1999/xlink" width="14" height="3" viewBox="0.248 0.341 13.315 2.045"><path paint-order="stroke fill markers" fill-rule="evenodd" d="M13.564 1.364c0-.565-.458-1.023-1.023-1.023H1.27a1.023 1.023 0 0 0 0 2.046h11.27c.565 0 1.023-.458 1.023-1.023z"/></svg></svg></svg><svg width="20" height="25" xmlns="http://www.w3.org/2000/svg" xmlns:xlink="http://www.w3.org/1999/xlink" xmlns:svgjs="http://svgjs.com/svgjs" viewBox="0.227 0 19.547 25" fill="#f3bf30" x="307" y="960"><svg xmlns="http://www.w3.org/2000/svg" xmlns:xlink="http://www.w3.org/1999/xlink" width="20" height="25" viewBox="0.718 0.898 18.389 23.519"><path paint-order="stroke fill markers" fill-rule="evenodd" d="M1.07 2.41c.015-.85.7-1.526 1.53-1.511l15.03.262c.83.014 1.49.714 1.476 1.563l-.352 20.18c-.022 1.228-1.372 1.936-2.36 1.238l-5.777-4.088a1.476 1.476 0 0 0-1.667-.03L3.032 23.91c-1.01.663-2.336-.092-2.314-1.32L1.07 2.41z"/></svg></svg></svg><svg width="71" height="7" xmlns="http://www.w3.org/2000/svg" xmlns:xlink="http://www.w3.org/1999/xlink" xmlns:svgjs="http://svgjs.com/svgjs" fill="#ecf9fd" x="285" y="990"><svg xmlns="http://www.w3.org/2000/svg" width="71" height="7"><path paint-order="stroke fill markers" fill-rule="evenodd" d="M35.5 7C15.868 7 0 5.435 0 3.5 0 1.564 15.868 0 35.5 0 55.13 0 71 1.564 71 3.5 71 5.435 55.13 7 35.5 7z"/></svg></svg></svg>